<svg xmlns="http://www.w3.org/2000/svg" xmlns:xlink="http://www.w3.org/1999/xlink" xmlns:lucid="lucid" width="821" height="950"><g transform="translate(-580 -160)" lucid:page-tab-id="0_0"><path d="M1149.15 715.57h1.7l.15-.02v26.25l.64 1.56 1.56.64h84.8v2h-85.2l-2.7-1.1-1.1-2.7v-26.65zm0-137.05h1.7l.15-.02v100.95l-.15-.02h-1.7l-.15.02V578.5zm.74-118.4l1.1 2.68v79.6l-.15-.02h-1.7l-.15.02v-79.2l-.64-1.56-1.56-.64H1062v-2h85.2z" stroke="#3a414a" stroke-width=".05" fill="#3a414a"/><path d="M1062.03 461H1061v-2h1.03z" fill="#3a414a"/><path d="M1062.05 461.02h-1.08v-2.04h1.08zm-1.02-2v1.96h.97v-1.96z" stroke="#3a414a" stroke-width=".05" fill="#3a414a"/><path d="M1239 746h-1.03v-2h1.03z" fill="#3a414a"/><path d="M1239.03 746.02h-1.08V744h1.08zm-1.03-2V746h.97V744z" stroke="#3a414a" stroke-width=".05" fill="#3a414a"/><path d="M1132.14 560.45c0-9.43 7.65-17.07 17.07-17.07h1.6c9.4 0 17.06 7.64 17.06 17.07 0 9.42-7.65 17.07-17.07 17.07h-1.6c-9.4 0-17.06-7.65-17.06-17.07z" stroke="#3a414a" stroke-width="2" fill-opacity="0"/><use xlink:href="#a" transform="matrix(1,0,0,1,1144.1444444444444,547.3817582063325) translate(0.004999999999999893 20)"/><path d="M720 508c0 6.63-26.86 12-60 12s-60-5.37-60-12v-96c0-6.63 26.86-12 60-12s60 5.37 60 12z" stroke="#1071e5" stroke-width="3" fill="#edf5ff"/><path d="M720 412c0 6.63-26.86 12-60 12s-60-5.37-60-12" stroke="#1071e5" stroke-width="3" fill="none"/><use xlink:href="#b" transform="matrix(1,0,0,1,605,429) translate(24.094000000000005 50.00266666666666)"/><use xlink:href="#c" transform="matrix(1,0,0,1,605,429) translate(73.67377777777777 50.00266666666666)"/><path d="M720 698c0 6.63-26.86 12-60 12s-60-5.37-60-12v-96c0-6.63 26.86-12 60-12s60 5.37 60 12z" stroke="#008a0e" stroke-width="3" fill="#e3fae3"/><path d="M720 602c0 6.63-26.86 12-60 12s-60-5.37-60-12" stroke="#008a0e" stroke-width="3" fill="none"/><use xlink:href="#b" transform="matrix(1,0,0,1,605,619) translate(24.094000000000005 50.00266666666666)"/><use xlink:href="#d" transform="matrix(1,0,0,1,605,619) translate(73.67377777777777 50.00266666666666)"/><path d="M720 888c0 6.63-26.86 12-60 12s-60-5.37-60-12v-96c0-6.63 26.86-12 60-12s60 5.37 60 12z" stroke="#e81313" stroke-width="3" fill="#fff0f0"/><path d="M720 792c0 6.63-26.86 12-60 12s-60-5.37-60-12" stroke="#e81313" stroke-width="3" fill="none"/><use xlink:href="#b" transform="matrix(1,0,0,1,605,809) translate(24.094000000000005 50.00266666666666)"/><use xlink:href="#e" transform="matrix(1,0,0,1,605,809) translate(73.67377777777777 50.00266666666666)"/><path d="M720 1078c0 6.63-26.86 12-60 12s-60-5.37-60-12v-96c0-6.63 26.86-12 60-12s60 5.37 60 12z" stroke="#ba23f6" stroke-width="3" fill="#f2f2ff"/><path d="M720 982c0 6.63-26.86 12-60 12s-60-5.37-60-12" stroke="#ba23f6" stroke-width="3" fill="none"/><use xlink:href="#b" transform="matrix(1,0,0,1,605,999) translate(24.094000000000005 50.00266666666666)"/><use xlink:href="#f" transform="matrix(1,0,0,1,605,999) translate(73.67377777777777 50.00266666666666)"/><path d="M1240 730c0-5.52 4.48-10 10-10h121c5.52 0 10 4.48 10 10v30c0 5.52-4.48 10-10 10h-121c-5.52 0-10-4.48-10-10z" stroke="#0c7cba" stroke-width="2" fill="#fff" fill-opacity="0"/><use xlink:href="#g" transform="matrix(1,0,0,1,1245,725) translate(30.325333333333347 27.695999999999998)"/><path d="M800 260c0-5.52 4.48-10 10-10h140c5.52 0 10 4.48 10 10v20c0 5.52-4.48 10-10 10H810c-5.52 0-10-4.48-10-10z" stroke="#635dff" stroke-width="2" fill="#f2f2ff"/><use xlink:href="#h" transform="matrix(1,0,0,1,805,255) translate(14.2428888888889 22.002666666666663)"/><path d="M740 190c0-5.52 4.48-10 10-10h200c5.52 0 10 4.48 10 10v20c0 5.52-4.48 10-10 10H750c-5.52 0-10-4.48-10-10z" stroke="#fc9432" stroke-width="2" fill="#fff3d9"/><use xlink:href="#i" transform="matrix(1,0,0,1,745,185) translate(14.447888888888897 22.002666666666663)"/><path d="M840 450c0-5.52 4.48-10 10-10h200c5.52 0 10 4.48 10 10v20c0 5.52-4.48 10-10 10H850c-5.52 0-10-4.48-10-10z" stroke="#3a414a" stroke-width="2" fill-opacity="0"/><use xlink:href="#j" transform="matrix(1,0,0,1,845,445) translate(36.150000000000034 20.616)"/><use xlink:href="#k" transform="matrix(1,0,0,1,845,445) translate(97.85400000000001 20.616)"/><path d="M840 640c0-5.52 4.48-10 10-10h200c5.52 0 10 4.48 10 10v20c0 5.52-4.48 10-10 10H850c-5.52 0-10-4.48-10-10z" stroke="#3a414a" stroke-width="2" fill-opacity="0"/><use xlink:href="#l" transform="matrix(1,0,0,1,845,635) translate(15.351000000000028 20.616)"/><use xlink:href="#k" transform="matrix(1,0,0,1,845,635) translate(118.65299999999999 20.616)"/><path d="M840 830c0-5.52 4.48-10 10-10h200c5.52 0 10 4.48 10 10v20c0 5.52-4.48 10-10 10H850c-5.52 0-10-4.48-10-10z" stroke="#3a414a" stroke-width="2" fill-opacity="0"/><use xlink:href="#m" transform="matrix(1,0,0,1,845,825) translate(28.78800000000004 20.616)"/><use xlink:href="#k" transform="matrix(1,0,0,1,845,825) translate(105.216 20.616)"/><path d="M840 1020c0-5.52 4.48-10 10-10h200c5.52 0 10 4.48 10 10v20c0 5.52-4.48 10-10 10H850c-5.52 0-10-4.48-10-10z" stroke="#3a414a" stroke-width="2" fill-opacity="0"/><use xlink:href="#n" transform="matrix(1,0,0,1,845,1015) translate(46.51800000000003 20.616)"/><use xlink:href="#k" transform="matrix(1,0,0,1,845,1015) translate(87.48600000000002 20.616)"/><path d="M618.52 326.05l1.5-.2v74.55h-3v-74.54zm94.5-124.55h-91.2l-1.28.53-.52 1.27v85.62l-1.5-.2-1.5.2V202.7l1.23-2.97 2.97-1.23h91.8z" stroke="#fc9432" stroke-width=".05" fill="#fc9432"/><path d="M620.02 401.6l-3 .6v-1.84h3z" fill="#fc9432"/><path d="M620.04 401.63l-3.05.6v-1.9h3.04zm-3-1.24v1.76l2.95-.57v-1.2z" stroke="#fc9432" stroke-width=".05" fill="#fc9432"/><path d="M736.05 200l-21.52 12.73v-25.46z" fill="#fff"/><path d="M739 200l-25.97 15.36v-30.72zm-22.97 10.1L733.1 200l-17.07-10.1z" stroke="#fc9432" stroke-width=".05" fill="#fc9432"/><path d="M602.17 306.6c0-9.04 7.32-16.36 16.35-16.36 9.03 0 16.35 7.32 16.35 16.35v1.6c0 9.02-7.32 16.34-16.35 16.34-9.03 0-16.35-7.32-16.35-16.35z" stroke="#fc9432" stroke-width="3" fill-opacity="0"/><use xlink:href="#o" transform="matrix(1,0,0,1,614.1671472644989,294.2400853484944) translate(0 20.822482638888886)"/><path d="M692.9 324.2h1.64l.7-.08v50.62h-3v-50.62zm104.6-52.7H697.03l-1.27.53-.53 1.27v13.6l-.7-.1h-1.62l-.67.1v-14.2l1.23-2.97 2.97-1.23H797.5z" stroke="#635dff" stroke-width=".05" fill="#635dff"/><path d="M799 271.5h-1.54v-3H799z" fill="#635dff"/><path d="M799.02 271.52h-1.58v-3.04h1.58zm-1.53-3v2.96h1.48v-2.96z" stroke="#635dff" stroke-width=".05" fill="#635dff"/><path d="M693.73 397.76L681 376.24h25.45z" fill="#fff"/><path d="M693.73 400.7l-15.36-25.96h30.7zm-10.1-22.96l10.1 17.07 10.1-17.06z" stroke="#635dff" stroke-width=".05" fill="#635dff"/><path d="M675.8 305.5c0-9.5 7.7-17.2 17.2-17.2h1.45c9.5 0 17.2 7.7 17.2 17.2s-7.7 17.2-17.2 17.2H693c-9.5 0-17.2-7.7-17.2-17.2z" stroke="#635dff" stroke-width="3" fill-opacity="0"/><use xlink:href="#p" transform="matrix(1,0,0,1,687.8148219491756,292.3149329574853) translate(0 20.199999999999996)"/><path d="M722.5 1030h92.02" stroke="#3a414a" stroke-width="2" fill="none"/><path d="M722.53 1031h-1.03v-2h1.03z" stroke="#3a414a" stroke-width=".05" fill="#3a414a"/><path d="M837.04 1030l-21.52 12.73v-25.46z" stroke="#3a414a" stroke-width="2" fill="#fff"/><path d="M722.5 840h92.02" stroke="#3a414a" stroke-width="2" fill="none"/><path d="M722.53 841h-1.03v-2h1.03z" stroke="#3a414a" stroke-width=".05" fill="#3a414a"/><path d="M837.04 840l-21.52 12.73v-25.46z" stroke="#3a414a" stroke-width="2" fill="#fff"/><path d="M722.5 650h92.02" stroke="#3a414a" stroke-width="2" fill="none"/><path d="M722.53 651h-1.03v-2h1.03z" stroke="#3a414a" stroke-width=".05" fill="#3a414a"/><path d="M837.04 650l-21.52 12.73v-25.46z" stroke="#3a414a" stroke-width="2" fill="#fff"/><path d="M722.5 480.88H767c1.66 0 3-1.34 3-3V463c0-1.66 1.34-3 3-3h65" stroke="#3a414a" stroke-width="2" fill="none"/><path d="M722.53 481.88h-1.03v-2h1.03zM839 461h-1.03v-2H839z" stroke="#3a414a" stroke-width=".05" fill="#3a414a"/><path d="M722.5 436.87H767c1.66 0 3 1.35 3 3V457c0 1.66 1.34 3 3 3h41.52" stroke="#3a414a" stroke-width="2" fill="none"/><path d="M722.53 437.87h-1.03v-2h1.03z" stroke="#3a414a" stroke-width=".05" fill="#3a414a"/><path d="M837.04 460l-21.52 12.73v-25.46z" stroke="#3a414a" stroke-width="2" fill="#fff"/><path d="M660 523v39.53" stroke="#1071e5" stroke-width="3" fill="none"/><path d="M660 521.5l1.5-.05v1.6h-3v-1.6z" stroke="#1071e5" stroke-width=".05" fill="#1071e5"/><path d="M660 585.55l-12.73-21.52h25.46z" stroke="#1071e5" stroke-width="3" fill="#fff"/><path d="M660 713v39.53" stroke="#008a0e" stroke-width="3" fill="none"/><path d="M660 711.5l1.5-.05v1.6h-3v-1.6z" stroke="#008a0e" stroke-width=".05" fill="#008a0e"/><path d="M660 775.55l-12.73-21.52h25.46z" stroke="#008a0e" stroke-width="3" fill="#fff"/><path d="M660 903v39.53" stroke="#e81313" stroke-width="3" fill="none"/><path d="M660 901.5l1.5-.05v1.6h-3v-1.6z" stroke="#e81313" stroke-width=".05" fill="#e81313"/><path d="M660 965.55l-12.73-21.52h25.46z" stroke="#e81313" stroke-width="3" fill="#fff"/><path d="M1149.15 715.57h1.7l.15-.02v26.25l.64 1.56 1.56.64h61.32v2h-61.72l-2.7-1.1-1.1-2.7v-26.65zm.74-65.46l1.1 2.7v26.65l-.15-.02h-1.7l-.15.02V653.2l-.64-1.56-1.56-.64H1062v-2h85.2z" stroke="#3a414a" stroke-width=".05" fill="#3a414a"/><path d="M1062.03 651H1061v-2h1.03z" fill="#3a414a"/><path d="M1062.05 651.02h-1.08V649h1.08zm-1.02-2V651h.97V649z" stroke="#3a414a" stroke-width=".05" fill="#3a414a"/><path d="M1237.04 745l-21.52 12.73v-25.46z" fill="#fff"/><path d="M1239 745l-24.48 14.48v-28.96zm-22.48 10.97l18.55-10.97-18.55-10.97z" stroke="#3a414a" stroke-width=".05" fill="#3a414a"/><path d="M1132.14 697.5c0-9.43 7.65-17.07 17.07-17.07h1.6c9.4 0 17.06 7.64 17.06 17.07s-7.65 17.07-17.07 17.07h-1.6c-9.4 0-17.06-7.64-17.06-17.07z" stroke="#3a414a" stroke-width="2" fill-opacity="0"/><use xlink:href="#a" transform="matrix(1,0,0,1,1144.1444444444444,684.4333333333333) translate(0 20)"/><path d="M1151 837.2l-1.1 2.7-2.7 1.1H1062v-2h84.8l1.56-.64.64-1.56v-16.66h2zm63.52-91.2h-61.32l-1.56.64-.64 1.56v35.64h-2V747.8l1.1-2.7 2.7-1.1h61.72z" stroke="#3a414a" stroke-width=".05" fill="#3a414a"/><path d="M1062.03 841H1061v-2h1.03z" fill="#3a414a"/><path d="M1062.05 841.02h-1.08V839h1.08zm-1.02-2V841h.97V839z" stroke="#3a414a" stroke-width=".05" fill="#3a414a"/><path d="M1237.04 745l-21.52 12.73v-25.46z" fill="#fff"/><path d="M1239 745l-24.48 14.48v-28.96zm-22.48 10.97l18.55-10.97-18.55-10.97zM1151 1027.2l-1.1 2.7-2.7 1.1H1062v-2h84.8l1.56-.64.64-1.56v-67.65h2zm0-104.35h-2v-102.7h2zM1214.52 746h-61.32l-1.56.64-.64 1.56v35.64h-2V747.8l1.1-2.7 2.7-1.1h61.72z" stroke="#3a414a" stroke-width=".05" fill="#3a414a"/><path d="M1062.03 1031H1061v-2h1.03z" fill="#3a414a"/><path d="M1062.05 1031.03h-1.08v-2.06h1.08zm-1.02-2v1.94h.97v-1.94z" stroke="#3a414a" stroke-width=".05" fill="#3a414a"/><path d="M1237.04 745l-21.52 12.73v-25.46z" fill="#fff"/><path d="M1239 745l-24.48 14.48v-28.96zm-22.48 10.97l18.55-10.97-18.55-10.97z" stroke="#3a414a" stroke-width=".05" fill="#3a414a"/><path d="M1131.87 802c0-9.5 7.68-17.16 17.15-17.16h1.96c9.47 0 17.15 7.67 17.15 17.15 0 9.46-7.68 17.14-17.15 17.14h-1.96c-9.47 0-17.15-7.68-17.15-17.15zM1131.87 941c0-9.47 7.68-17.15 17.15-17.15h1.96c9.47 0 17.15 7.68 17.15 17.15 0 9.47-7.68 17.15-17.15 17.15h-1.96c-9.47 0-17.15-7.68-17.15-17.15z" stroke="#3a414a" stroke-width="2" fill-opacity="0"/><g><use xlink:href="#q" transform="matrix(1,0,0,1,1143.873806423611,788.835299546736) translate(0.004999999999999893 20.822482638888886)"/></g><g><use xlink:href="#q" transform="matrix(1,0,0,1,1143.873806423611,927.8480165689667) translate(0.004999999999999893 20.822482638888886)"/></g><defs><path fill="#303030" d="M43-394h162v-169h117v169h163v112H322v171H205v-171H43v-112" id="r"/><use transform="matrix(0.022222222222222223,0,0,0.022222222222222223,0,0)" xlink:href="#r" id="a"/><path fill="#303030" d="M537-626H319V0h-83v-626H18v-74h519v74" id="s"/><path fill="#303030" d="M422-354c0 120-19 253 8 356h-59l-21-70h-5C315-22 265 8 189 8 98 8 39-43 39-134c0-147 152-157 302-151 10-93 1-159-99-153-57 4-110 14-148 35l-25-60c48-30 118-45 194-45 108-1 159 51 159 154zM122-142c-2 47 40 81 89 80 67-1 109-32 130-79v-83c-95-3-214-10-219 82" id="t"/><path fill="#303030" d="M313-512c130 0 165 79 165 210V0h-80v-285c-2-94-16-155-105-157-72-1-118 46-136 100V0H77v-500h56l15 61h4c32-42 86-73 161-73" id="u"/><path fill="#303030" d="M203-225h-46V0H77v-700h80v426l41-14 155-212h93L293-299l-41 33 50 40L469 0h-99" id="v"/><g id="b"><use transform="matrix(0.02244444444444444,0,0,0.02244444444444444,0,0)" xlink:href="#s"/><use transform="matrix(0.02244444444444444,0,0,0.02244444444444444,10.099999999999998,0)" xlink:href="#t"/><use transform="matrix(0.02244444444444444,0,0,0.02244444444444444,21.23244444444444,0)" xlink:href="#u"/><use transform="matrix(0.02244444444444444,0,0,0.02244444444444444,33.50955555555555,0)" xlink:href="#v"/></g><path fill="#303030" d="M272 12C91 12 43-150 43-350c0-120 20-210 59-271s95-91 170-91c188 0 230 150 230 362 0 120-19 210-58 271s-97 91-172 91zm147-362c0-142-13-292-147-292-50 0-90 22-110 71C106-435 89-59 272-58c51 0 88-23 112-70s35-121 35-222" id="w"/><use transform="matrix(0.02244444444444444,0,0,0.02244444444444444,0,0)" xlink:href="#w" id="c"/><path fill="#303030" d="M108-74h140v-484l10-59-40 47-110 79-38-51 220-170h36v638h137V0H108v-74" id="x"/><use transform="matrix(0.02244444444444444,0,0,0.02244444444444444,0,0)" xlink:href="#x" id="d"/><path fill="#303030" d="M267-712c112 0 179 61 179 171 0 193-130 309-219 431l-49 43v4c78-19 187-8 282-11V0H62v-29c108-116 222-246 285-410 36-94 12-203-97-203-54 0-105 27-136 51l-33-57c43-37 108-64 186-64" id="y"/><use transform="matrix(0.02244444444444444,0,0,0.02244444444444444,0,0)" xlink:href="#y" id="e"/><path fill="#303030" d="M109-84c32 15 76 27 125 26 95-3 155-52 158-145 4-123-100-148-230-138v-29l144-222 46-44c-74 17-174 8-263 10v-74h357v29L287-432c-11 11-26 18-35 31l34-7c117 7 182 75 186 195C478-16 271 53 88-13" id="z"/><use transform="matrix(0.02244444444444444,0,0,0.02244444444444444,0,0)" xlink:href="#z" id="f"/><path fill="#303030" d="M524-513c0 116-60 187-147 215l49 31L586 0H428L269-274l-72-13V0H60v-693c195-32 464-42 464 180zm-144 21c0-92-93-108-183-91v203c104 6 183-11 183-112" id="A"/><path fill="#303030" d="M211 14C88 14 52-63 52-189v-311h130v284c2 72 6 113 71 115 52 1 83-37 98-76v-323h130c6 167-14 358 16 500h-98l-23-74h-4c-29 48-84 88-161 88" id="B"/><path fill="#303030" d="M338-514c121 0 155 79 155 203V0H363v-284c-1-72-12-113-77-115-52-1-86 36-99 75V0H57v-500h103l15 66h4c32-43 81-80 159-80" id="C"/><path fill="#303030" d="M269 14C107 14 36-88 33-250c-2-161 81-264 236-264 162 0 233 102 235 264 2 161-80 264-235 264zm0-418c-78 0-104 61-102 154 1 82 21 154 102 154 80 0 101-62 101-154 0-83-21-154-101-154" id="D"/><path fill="#303030" d="M344-585c-48-18-132-27-132 43 0 12-2 26-2 42h110v110H210V0H80v-390H11v-110h69c-6-133 36-207 156-208 53 0 98 6 133 19" id="E"/><g id="g"><use transform="matrix(0.02466666666666666,0,0,0.02466666666666666,0,0)" xlink:href="#A"/><use transform="matrix(0.02466666666666666,0,0,0.02466666666666666,14.849333333333329,0)" xlink:href="#B"/><use transform="matrix(0.02466666666666666,0,0,0.02466666666666666,28.11999999999999,0)" xlink:href="#C"/><use transform="matrix(0.02466666666666666,0,0,0.02466666666666666,41.56333333333332,0)" xlink:href="#D"/><use transform="matrix(0.02466666666666666,0,0,0.02466666666666666,54.51333333333332,0)" xlink:href="#E"/><use transform="matrix(0.02466666666666666,0,0,0.02466666666666666,62.43133333333331,0)" xlink:href="#E"/></g><path fill="#303030" d="M522-493c0 190-158 248-354 227V0H85v-693c48-12 110-15 169-15 155 0 268 57 268 215zm-88 0c0-134-136-157-266-137v290c139 17 266-9 266-153" id="F"/><path fill="#303030" d="M152-439c26-60 97-88 178-61l-17 77c-74-29-156 5-156 73V0H77v-500h56l15 61h4" id="G"/><path fill="#303030" d="M293-58c43 0 98-19 119-40l30 58C404-9 338 12 270 12 112 10 51-92 49-250c-1-159 70-258 220-262 155-4 211 110 184 270H132c0 116 45 184 161 184zm88-247c1-92-30-137-111-137-89 0-129 46-137 137h248" id="H"/><path fill="#303030" d="M281-58c46 1 86-17 111-36l26 61c-37 28-94 45-157 45C104 12 53-93 49-250c-5-188 108-294 299-254 22 5 42 12 60 21l-23 69c-29-16-66-28-111-28-95 0-142 64-142 192 0 110 39 189 149 192" id="I"/><path fill="#303030" d="M94-500h80V0H94v-500zm38-99c-31 0-55-23-55-53s24-56 55-56 58 26 58 56-28 53-58 53" id="J"/><path fill="#303030" d="M262 12c-51 0-69-5-105-20v208H77v-700h55l15 60h4c28-43 75-72 143-72 149 0 198 89 198 252 0 161-73 272-230 272zm147-273c-1-103-28-181-130-181-75 0-107 41-122 107v248c27 20 53 30 102 29 104-2 152-86 150-203" id="K"/><path fill="#303030" d="M200 12C109 10 89-39 89-138v-292H11v-70h78v-99l80-23v122h136v70H169v277c1 59 6 93 57 95 38 1 55-9 84-20l18 61c-35 17-77 30-128 29" id="L"/><path fill="#303030" d="M268 12C112 12 51-93 49-250c-1-158 69-262 219-262 156 0 217 105 219 262 1 158-69 262-219 262zm136-262c0-105-32-190-136-192-91-2-136 63-136 192 0 105 33 189 136 192 91 2 136-63 136-192" id="M"/><g id="h"><use transform="matrix(0.02244444444444444,0,0,0.02244444444444444,0,0)" xlink:href="#F"/><use transform="matrix(0.02244444444444444,0,0,0.02244444444444444,11.760888888888887,0)" xlink:href="#G"/><use transform="matrix(0.02244444444444444,0,0,0.02244444444444444,19.391999999999996,0)" xlink:href="#H"/><use transform="matrix(0.02244444444444444,0,0,0.02244444444444444,30.54688888888888,0)" xlink:href="#I"/><use transform="matrix(0.02244444444444444,0,0,0.02244444444444444,40.66933333333332,0)" xlink:href="#J"/><use transform="matrix(0.02244444444444444,0,0,0.02244444444444444,46.68444444444442,0)" xlink:href="#K"/><use transform="matrix(0.02244444444444444,0,0,0.02244444444444444,58.82688888888888,0)" xlink:href="#J"/><use transform="matrix(0.02244444444444444,0,0,0.02244444444444444,64.84199999999998,0)" xlink:href="#L"/><use transform="matrix(0.02244444444444444,0,0,0.02244444444444444,72.45066666666665,0)" xlink:href="#t"/><use transform="matrix(0.02244444444444444,0,0,0.02244444444444444,83.5831111111111,0)" xlink:href="#L"/><use transform="matrix(0.02244444444444444,0,0,0.02244444444444444,91.19177777777776,0)" xlink:href="#J"/><use transform="matrix(0.02244444444444444,0,0,0.02244444444444444,97.20688888888887,0)" xlink:href="#M"/><use transform="matrix(0.02244444444444444,0,0,0.02244444444444444,109.23711111111109,0)" xlink:href="#u"/></g><path fill="#303030" d="M85-700h381v74H168v229h273v74H168v249h303V0H85v-700" id="N"/><path fill="#303030" d="M101-500c50 129 110 248 149 388 32-143 91-259 137-388h86L260 11h-34L9-500h92" id="O"/><path fill="#303030" d="M63-93c59 36 240 71 234-43-5-91-121-82-179-124-34-24-62-54-62-113 0-97 59-138 155-139 66-1 112 13 154 32l-19 66c-52-26-221-63-210 39 9 83 124 74 178 118 33 27 64 57 63 118-3 103-68 149-174 151C134 13 81-3 39-25" id="P"/><g id="i"><use transform="matrix(0.02244444444444444,0,0,0.02244444444444444,0,0)" xlink:href="#N"/><use transform="matrix(0.02244444444444444,0,0,0.02244444444444444,12.03022222222222,0)" xlink:href="#O"/><use transform="matrix(0.02244444444444444,0,0,0.02244444444444444,22.84844444444444,0)" xlink:href="#t"/><use transform="matrix(0.02244444444444444,0,0,0.02244444444444444,33.980888888888884,0)" xlink:href="#K"/><use transform="matrix(0.02244444444444444,0,0,0.02244444444444444,46.12333333333333,0)" xlink:href="#M"/><use transform="matrix(0.02244444444444444,0,0,0.02244444444444444,58.15355555555554,0)" xlink:href="#L"/><use transform="matrix(0.02244444444444444,0,0,0.02244444444444444,65.76222222222222,0)" xlink:href="#G"/><use transform="matrix(0.02244444444444444,0,0,0.02244444444444444,73.39333333333333,0)" xlink:href="#t"/><use transform="matrix(0.02244444444444444,0,0,0.02244444444444444,84.52577777777778,0)" xlink:href="#u"/><use transform="matrix(0.02244444444444444,0,0,0.02244444444444444,96.80288888888889,0)" xlink:href="#P"/><use transform="matrix(0.02244444444444444,0,0,0.02244444444444444,106.252,0)" xlink:href="#K"/><use transform="matrix(0.02244444444444444,0,0,0.02244444444444444,118.39444444444442,0)" xlink:href="#J"/><use transform="matrix(0.02244444444444444,0,0,0.02244444444444444,124.40955555555553,0)" xlink:href="#G"/><use transform="matrix(0.02244444444444444,0,0,0.02244444444444444,132.04066666666665,0)" xlink:href="#t"/><use transform="matrix(0.02244444444444444,0,0,0.02244444444444444,143.1731111111111,0)" xlink:href="#L"/><use transform="matrix(0.02244444444444444,0,0,0.02244444444444444,150.78177777777776,0)" xlink:href="#J"/><use transform="matrix(0.02244444444444444,0,0,0.02244444444444444,156.79688888888887,0)" xlink:href="#M"/><use transform="matrix(0.02244444444444444,0,0,0.02244444444444444,168.8271111111111,0)" xlink:href="#u"/></g><path fill="#303030" d="M74-100c89 50 337 72 327-78-8-132-168-134-251-198-46-36-87-77-87-158 0-190 253-210 408-146l-25 73c-38-17-105-31-168-31-104 0-173 93-107 164 94 102 313 99 313 289C484-48 386 9 246 12 162 13 95-2 46-25" id="Q"/><path fill="#303030" d="M232 12C103 12 68-68 69-198v-302h80v285c0 87 12 158 98 157 78-1 111-51 135-108v-334h80c4 166-10 350 11 500h-55l-20-79h-5c-31 50-80 91-161 91" id="R"/><path fill="#303030" d="M251-636c-75-3-71 63-71 136h133v70H180V0h-80v-430H22v-70h78c-5-124 22-209 143-206 47 1 73 5 108 19l-18 67c-26-12-50-15-82-16" id="S"/><g id="j"><use transform="matrix(0.01799999999999999,0,0,0.01799999999999999,0,0)" xlink:href="#Q"/><use transform="matrix(0.01799999999999999,0,0,0.01799999999999999,9.557999999999996,0)" xlink:href="#R"/><use transform="matrix(0.01799999999999999,0,0,0.01799999999999999,19.25999999999999,0)" xlink:href="#G"/><use transform="matrix(0.01799999999999999,0,0,0.01799999999999999,25.37999999999999,0)" xlink:href="#S"/><use transform="matrix(0.01799999999999999,0,0,0.01799999999999999,31.121999999999986,0)" xlink:href="#t"/><use transform="matrix(0.01799999999999999,0,0,0.01799999999999999,40.04999999999998,0)" xlink:href="#I"/><use transform="matrix(0.01799999999999999,0,0,0.01799999999999999,47.75399999999998,0)" xlink:href="#H"/></g><path fill="#303030" d="M262 9C206 9 136 6 85 1v-701c55-8 125-8 187-8 221 0 326 133 326 353C598-133 489 9 262 9zm248-364c0-173-76-287-264-279-26 1-55 2-78 5v560c27 3 67 4 96 4 176 0 246-117 246-290" id="T"/><path fill="#303030" d="M314-512c131 0 164 78 164 210V0h-80v-285c1-91-15-157-107-157-66 0-134 50-134 109V0H77v-700h80v256h4c35-40 79-68 153-68" id="U"/><path fill="#303030" d="M290-509c71-1 121 13 170 30V23c0 132-72 189-204 189-71 0-115-8-159-27l21-68c37 13 69 25 124 25 122 0 148-66 139-191h-4c-28 39-65 61-132 60C95 9 50-86 49-248c-1-166 78-261 241-261zM132-249c2 104 25 190 127 190 75 0 106-39 121-105v-256c-27-13-61-19-102-19-103 0-147 74-146 190" id="V"/><g id="k"><use transform="matrix(0.01799999999999999,0,0,0.01799999999999999,0,0)" xlink:href="#T"/><use transform="matrix(0.01799999999999999,0,0,0.01799999999999999,11.771999999999995,0)" xlink:href="#J"/><use transform="matrix(0.01799999999999999,0,0,0.01799999999999999,16.595999999999993,0)" xlink:href="#P"/><use transform="matrix(0.01799999999999999,0,0,0.01799999999999999,24.17399999999999,0)" xlink:href="#I"/><use transform="matrix(0.01799999999999999,0,0,0.01799999999999999,32.29199999999999,0)" xlink:href="#U"/><use transform="matrix(0.01799999999999999,0,0,0.01799999999999999,42.137999999999984,0)" xlink:href="#t"/><use transform="matrix(0.01799999999999999,0,0,0.01799999999999999,51.06599999999998,0)" xlink:href="#G"/><use transform="matrix(0.01799999999999999,0,0,0.01799999999999999,57.18599999999998,0)" xlink:href="#V"/><use transform="matrix(0.01799999999999999,0,0,0.01799999999999999,66.85199999999998,0)" xlink:href="#H"/></g><path fill="#303030" d="M104-700h83V0h-83v-700" id="W"/><path fill="#303030" d="M568-442c-74 2-103 45-118 108V0h-80v-283c0-87-6-159-94-159-65 0-104 47-119 98V0H77v-500h56l15 61h4c37-41 77-74 155-73 72 1 105 26 126 83 28-48 82-81 155-83 130-3 155 82 155 212V0h-80v-301c1-83-12-143-95-141" id="X"/><path fill="#303030" d="M276-509c50 0 69 4 105 17v-208h80v528c1 67-1 118 10 174h-54l-20-71h-4c-25 44-78 82-147 81C97 8 50-86 49-248c-1-159 77-260 227-261zM132-248c1 104 26 190 127 190 75 0 108-41 122-107v-248c-27-20-53-26-102-26-105 0-148 72-147 191" id="Y"/><g id="l"><use transform="matrix(0.01799999999999999,0,0,0.01799999999999999,0,0)" xlink:href="#W"/><use transform="matrix(0.01799999999999999,0,0,0.01799999999999999,5.237999999999998,0)" xlink:href="#u"/><use transform="matrix(0.01799999999999999,0,0,0.01799999999999999,15.083999999999993,0)" xlink:href="#L"/><use transform="matrix(0.01799999999999999,0,0,0.01799999999999999,20.98799999999999,0)" xlink:href="#H"/><use transform="matrix(0.01799999999999999,0,0,0.01799999999999999,30.131999999999984,0)" xlink:href="#G"/><use transform="matrix(0.01799999999999999,0,0,0.01799999999999999,36.25199999999998,0)" xlink:href="#X"/><use transform="matrix(0.01799999999999999,0,0,0.01799999999999999,50.867999999999974,0)" xlink:href="#H"/><use transform="matrix(0.01799999999999999,0,0,0.01799999999999999,60.01199999999997,0)" xlink:href="#Y"/><use transform="matrix(0.01799999999999999,0,0,0.01799999999999999,69.69599999999997,0)" xlink:href="#J"/><use transform="matrix(0.01799999999999999,0,0,0.01799999999999999,74.51999999999997,0)" xlink:href="#t"/><use transform="matrix(0.01799999999999999,0,0,0.01799999999999999,83.44799999999996,0)" xlink:href="#L"/><use transform="matrix(0.01799999999999999,0,0,0.01799999999999999,89.35199999999998,0)" xlink:href="#H"/></g><path fill="#303030" d="M247 9C183 10 114-8 77-29v-671h80v249h4c28-36 76-61 136-61 144 0 194 97 194 254C491-91 407 8 247 9zm161-268c-2-100-27-183-125-183-74 0-109 46-126 107v252c24 14 63 22 102 22 105 0 151-78 149-198" id="Z"/><path fill="#303030" d="M59-325h242v74H59v-74" id="aa"/><path fill="#303030" d="M85-694c171-23 429-43 422 154-3 92-55 144-132 165v4c90 17 153 67 153 172C528-40 396 12 227 8 178 7 125 5 85-5v-689zm83 623c126 19 272 6 272-122 0-133-136-132-272-129v251zm251-452c4-121-140-121-251-107v238c64-1 139 3 178-24 36-24 71-50 73-107" id="ab"/><g id="m"><use transform="matrix(0.01799999999999999,0,0,0.01799999999999999,0,0)" xlink:href="#Q"/><use transform="matrix(0.01799999999999999,0,0,0.01799999999999999,9.557999999999996,0)" xlink:href="#R"/><use transform="matrix(0.01799999999999999,0,0,0.01799999999999999,19.25999999999999,0)" xlink:href="#Z"/><use transform="matrix(0.01799999999999999,0,0,0.01799999999999999,28.979999999999986,0)" xlink:href="#aa"/><use transform="matrix(0.01799999999999999,0,0,0.01799999999999999,35.45999999999998,0)" xlink:href="#ab"/><use transform="matrix(0.01799999999999999,0,0,0.01799999999999999,45.97199999999997,0)" xlink:href="#t"/><use transform="matrix(0.01799999999999999,0,0,0.01799999999999999,54.89999999999996,0)" xlink:href="#P"/><use transform="matrix(0.01799999999999999,0,0,0.01799999999999999,62.477999999999966,0)" xlink:href="#H"/></g><g id="n"><use transform="matrix(0.01799999999999999,0,0,0.01799999999999999,0,0)" xlink:href="#ab"/><use transform="matrix(0.01799999999999999,0,0,0.01799999999999999,10.511999999999995,0)" xlink:href="#t"/><use transform="matrix(0.01799999999999999,0,0,0.01799999999999999,19.43999999999999,0)" xlink:href="#P"/><use transform="matrix(0.01799999999999999,0,0,0.01799999999999999,27.017999999999986,0)" xlink:href="#H"/></g><path fill="#fc9432" d="M673-507H110v-233h563v233" id="ac"/><use transform="matrix(0.010959201388888886,0,0,0.010959201388888886,0,0)" xlink:href="#ac" id="o"/><path fill="#635dff" d="M43-394h162v-169h117v169h163v112H322v171H205v-171H43v-112" id="ad"/><use transform="matrix(0.02244444444444444,0,0,0.02244444444444444,0,0)" xlink:href="#ad" id="p"/><path fill="#303030" d="M694-815h361v261H694v408H419v-408H57v-261h362v-391h275v391" id="ae"/><use transform="matrix(0.010959201388888886,0,0,0.010959201388888886,0,0)" xlink:href="#ae" id="q"/></defs></g></svg>