<svg xmlns="http://www.w3.org/2000/svg" xmlns:xlink="http://www.w3.org/1999/xlink" xmlns:lucid="lucid" width="861" height="990.26"><g transform="translate(-449.5 -184.87123567369895)" lucid:page-tab-id="z6MjmQQu0z8X"><path d="M589.5 573.13c0 6.63-26.86 12-60 12s-60-5.37-60-12v-96c0-6.63 26.86-12 60-12s60 5.37 60 12z" stroke="#6f7681" stroke-width="2" fill="url(#a)"/><path d="M589.5 477.13c0 6.63-26.86 12-60 12s-60-5.37-60-12" stroke="#6f7681" stroke-width="2" fill="none"/><use xlink:href="#b" transform="matrix(1,0,0,1,474.5,494.1287643263013) translate(14.600000000000001 49.44155555555555)"/><use xlink:href="#c" transform="matrix(1,0,0,1,474.5,494.1287643263013) translate(81.93333333333334 49.44155555555555)"/><path d="M589.5 763.13c0 6.63-26.86 12-60 12s-60-5.37-60-12v-96c0-6.63 26.86-12 60-12s60 5.37 60 12z" stroke="#6f7681" stroke-width="2" fill="url(#d)"/><path d="M589.5 667.13c0 6.63-26.86 12-60 12s-60-5.37-60-12" stroke="#6f7681" stroke-width="2" fill="none"/><use xlink:href="#b" transform="matrix(1,0,0,1,474.5,684.1287643263013) translate(14.600000000000001 49.44155555555555)"/><use xlink:href="#e" transform="matrix(1,0,0,1,474.5,684.1287643263013) translate(81.93333333333334 49.44155555555555)"/><path d="M589.5 953.13c0 6.63-26.86 12-60 12s-60-5.37-60-12v-96c0-6.63 26.86-12 60-12s60 5.37 60 12z" stroke="#6f7681" stroke-width="2" fill="url(#f)"/><path d="M589.5 857.13c0 6.63-26.86 12-60 12s-60-5.37-60-12" stroke="#6f7681" stroke-width="2" fill="none"/><use xlink:href="#b" transform="matrix(1,0,0,1,474.5,874.1287643263012) translate(14.600000000000001 49.44155555555555)"/><use xlink:href="#g" transform="matrix(1,0,0,1,474.5,874.1287643263012) translate(81.93333333333334 49.44155555555555)"/><path d="M589.5 1143.13c0 6.63-26.86 12-60 12s-60-5.37-60-12v-96c0-6.63 26.86-12 60-12s60 5.37 60 12z" stroke="#6f7681" stroke-width="2" fill="url(#h)"/><path d="M589.5 1047.13c0 6.63-26.86 12-60 12s-60-5.37-60-12" stroke="#6f7681" stroke-width="2" fill="none"/><use xlink:href="#b" transform="matrix(1,0,0,1,474.5,1064.128764326301) translate(14.600000000000001 49.44155555555555)"/><use xlink:href="#i" transform="matrix(1,0,0,1,474.5,1064.128764326301) translate(81.93333333333334 49.44155555555555)"/><path d="M1149.5 794.87a10 10 0 0 1 10-10h121a10 10 0 0 1 10 10v30a10 10 0 0 1-10 10h-121a10 10 0 0 1-10-10z" stroke="#6f7681" stroke-width="2" fill="#f2f3f5"/><use xlink:href="#j" transform="matrix(1,0,0,1,1154.5,789.871235673699) translate(21.100000000000016 27.07933333333333)"/><path d="M699.5 309.4a10 10 0 0 1 10-10h250a10 10 0 0 1 10 10v33.74a10 10 0 0 1-10 10h-250a10 10 0 0 1-10-10z" stroke="#6f7681" stroke-width="2" fill="#fff"/><use xlink:href="#k" transform="matrix(1,0,0,1,704.5,304.4117070210967) translate(42.46666666666667 28.441555555555553)"/><path d="M699.5 214.87a10 10 0 0 1 10-10h250a10 10 0 0 1 10 10v33.73a10 10 0 0 1-10 10h-250a10 10 0 0 1-10-10z" stroke="#4c535d" stroke-width="2" fill="#fff"/><use xlink:href="#l" transform="matrix(1,0,0,1,704.5,209.87123567369895) translate(8.799999999999997 28.441555555555553)"/><path d="M699.5 505.13a10 10 0 0 1 10-10h250a10 10 0 0 1 10 10v40a10 10 0 0 1-10 10h-250a10 10 0 0 1-10-10z" stroke="#6f7681" stroke-width="2" fill="#fff"/><use xlink:href="#m" transform="matrix(1,0,0,1,704.5,500.1287643263013) translate(38.200000000000045 30.165999999999997)"/><use xlink:href="#n" transform="matrix(1,0,0,1,704.5,500.1287643263013) translate(124.60000000000001 30.165999999999997)"/><path d="M699.5 694.87a10 10 0 0 1 10-10h250a10 10 0 0 1 10 10v40a10 10 0 0 1-10 10h-250a10 10 0 0 1-10-10z" stroke="#6f7681" stroke-width="2" fill="#fff"/><use xlink:href="#o" transform="matrix(1,0,0,1,704.5,689.871235673699) translate(11.20000000000006 30.165999999999997)"/><use xlink:href="#n" transform="matrix(1,0,0,1,704.5,689.871235673699) translate(151.59999999999997 30.165999999999997)"/><path d="M699.5 885.13a10 10 0 0 1 10-10h250a10 10 0 0 1 10 10v40a10 10 0 0 1-10 10h-250a10 10 0 0 1-10-10z" stroke="#6f7681" stroke-width="2" fill="#fff"/><use xlink:href="#p" transform="matrix(1,0,0,1,704.5,880.1287643263012) translate(32.80000000000004 30.165999999999997)"/><use xlink:href="#n" transform="matrix(1,0,0,1,704.5,880.1287643263012) translate(130 30.165999999999997)"/><path d="M699.5 1074.87a10 10 0 0 1 10-10h250a10 10 0 0 1 10 10v40a10 10 0 0 1-10 10h-250a10 10 0 0 1-10-10z" stroke="#6f7681" stroke-width="2" fill="#fff"/><use xlink:href="#q" transform="matrix(1,0,0,1,704.5,1069.871235673699) translate(54.400000000000034 30.165999999999997)"/><use xlink:href="#n" transform="matrix(1,0,0,1,704.5,1069.871235673699) translate(108.4 30.165999999999997)"/><path d="M582.8 231.73l.07 1.03h-71.74l-.26.07-.3.12-.26.17-.23.2-.2.24-.17.27-.12.3-.07.3-.02.34v229.15h-2V234.7l.05-.6.15-.6.24-.58.32-.54.4-.48.5-.4.53-.33.58-.24.64-.16h71.96zm113.94 1l-74.56.02.08-1.02-.08-.98 74.56-.02z" stroke="#6f7681" stroke-width=".05" fill="#6f7681"/><path d="M509.48 464.8l-2 .22v-1.13h2z" fill="#6f7681"/><path d="M509.5 464.84l-2.04.2v-1.18h2.05zm-2-.93v1.1l1.96-.2v-.9zM698.56 231.73l-18.67 11.05-1.03-1.73 15.76-9.32-15.76-9.32 1.02-1.7z" stroke="#6f7681" stroke-width=".05" fill="#6f7681"/><path d="M583.8 231.73a15.5 15.5 0 0 1 15.5-15.5h6.44a15.5 15.5 0 0 1 15.5 15.5 15.5 15.5 0 0 1-15.5 15.52h-6.44a15.5 15.5 0 0 1-15.5-15.52z" stroke="#6f7681" stroke-width="2" fill-opacity="0"/><use xlink:href="#r" transform="matrix(1,0,0,1,595.7881737292417,220.22000000000006) translate(0 17.955555555555552)"/><path d="M581.73 326.27l.08 1h-28.75l-.35.03-.3.08-.3.12-.26.16-.24.2-.2.24-.17.27-.12.3-.05.25-.04 134.2h-2l.05-134.43.16-.66.25-.58.32-.54.4-.48.5-.4.53-.33.58-.23.6-.15.6-.05h28.83zm115.83 1h-76.43l.08-1-.07-1h76.43z" stroke="#6f7681" stroke-width=".05" fill="#6f7681"/><path d="M698.56 327.27h-1.03v-2h1.03z" fill="#6f7681"/><path d="M698.6 327.3h-1.1v-2.05h1.08zm-1.04-2v1.95h.98v-1.95zM550 461.02l9.33-15.76 1.72 1.02L550 464.95l-11.03-18.67 1.72-1.02z" stroke="#6f7681" stroke-width=".05" fill="#6f7681"/><path d="M582.74 326.27a15.5 15.5 0 0 1 15.5-15.5h6.45a15.5 15.5 0 0 1 15.5 15.5 15.5 15.5 0 0 1-15.5 15.52h-6.45a15.5 15.5 0 0 1-15.5-15.53z" stroke="#6f7681" stroke-width="2" fill-opacity="0"/><use xlink:href="#s" transform="matrix(1,0,0,1,594.7368467197068,314.7604713473978) translate(0 17.955555555555552)"/><path d="M591.5 1095.13h52.9a.13.13 0 0 0 .13-.13.13.13 0 0 1 .13-.13h52.08" stroke="#4c535d" stroke-width="2" fill="none"/><path d="M591.53 1096.13h-1.03v-2h1.03z" stroke="#4c535d" stroke-width=".05" fill="#4c535d"/><path d="M679.38 1105.05l17.2-10.18-17.2-10.18" stroke="#4c535d" stroke-width="2" fill="none"/><path d="M591.5 905.13h105.24" stroke="#6f7681" stroke-width="2" fill="none"/><path d="M591.53 906.13h-1.03v-2h1.03z" stroke="#6f7681" stroke-width=".05" fill="#6f7681"/><path d="M679.38 915.3l17.2-10.17-17.2-10.18M591.5 715.13h52.9a.13.13 0 0 0 .13-.13.13.13 0 0 1 .13-.13h52.08" stroke="#6f7681" stroke-width="2" fill="none"/><path d="M591.53 716.13h-1.03v-2h1.03z" stroke="#6f7681" stroke-width=".05" fill="#6f7681"/><path d="M679.38 725.05l17.2-10.18-17.2-10.18M591.5 545.84h35a3 3 0 0 0 3-3v-14.7a3 3 0 0 1 3-3h65.06" stroke="#6f7681" stroke-width="2" fill="none"/><path d="M591.53 546.84h-1.03v-2h1.03zM698.56 526.13h-1.03v-2h1.03z" stroke="#6f7681" stroke-width=".05" fill="#6f7681"/><path d="M591.5 502.2h35a3 3 0 0 1 3 3v16.93a3 3 0 0 0 3 3h64.24" stroke="#6f7681" stroke-width="2" fill="none"/><path d="M591.53 503.2h-1.03v-2h1.03z" stroke="#6f7681" stroke-width=".05" fill="#6f7681"/><path d="M679.38 535.3l17.2-10.17-17.2-10.18" stroke="#6f7681" stroke-width="2" fill="none"/><path d="M529.5 587.63v63.77" stroke="#6f7681" stroke-width="3" fill="none"/><path d="M529.5 586.13l1.5-.05v1.6h-3v-1.6z" stroke="#6f7681" stroke-width=".05" fill="#6f7681"/><path d="M519.32 633.97l10.18 17.2 10.18-17.2M529.5 777.63v63.77" stroke="#6f7681" stroke-width="3" fill="none"/><path d="M529.5 776.13l1.5-.05v1.6h-3v-1.6z" stroke="#6f7681" stroke-width=".05" fill="#6f7681"/><path d="M519.32 823.97l10.18 17.2 10.18-17.2M529.5 967.63v63.77" stroke="#6f7681" stroke-width="3" fill="none"/><path d="M529.5 966.13l1.5-.05v1.6h-3v-1.6z" stroke="#6f7681" stroke-width=".05" fill="#6f7681"/><path d="M519.32 1013.97l10.18 17.2 10.18-17.2" stroke="#6f7681" stroke-width="3" fill="none"/><path d="M1060.5 806.83l.03.35.07.3.12.3.16.26.2.24.25.2.26.17.28.12.27.06 84.6.04v2l-84.84-.04-.64-.15-.58-.24-.53-.33-.48-.4-.4-.48-.34-.53-.24-.6-.15-.6-.05-.6v-30.34l2-.04zm0-58.64l-2 .02-.02-121.34 2-.03zm-3.37-224.03l.6.15.6.24.52.33.48.4.4.48.34.53.24.6.16.64v70.97l-2 .05v-70.77l-.06-.27-.12-.28-.16-.26-.2-.24-.25-.2-.26-.17-.28-.12-.3-.07-.36-.03h-85.02v-2h85.1z" stroke="#6f7681" stroke-width=".05" fill="#6f7681"/><path d="M971.47 526.13h-1.03v-2h1.03z" fill="#6f7681"/><path d="M971.5 526.15h-1.08v-2.05h1.07zm-1.04-2v1.95h.98v-1.95zM1148.56 809.87l-18.67 11.04-1.03-1.7 15.76-9.33-15.76-9.32 1.02-1.72z" stroke="#6f7681" stroke-width=".05" fill="#6f7681"/><path d="M1042.1 612.7a13.23 13.23 0 0 1 13.23-13.24h8.34a13.23 13.23 0 0 1 13.23 13.24 13.23 13.23 0 0 1-13.23 13.23h-8.34a13.23 13.23 0 0 1-13.23-13.23z" stroke="#6f7681" stroke-width="2" fill-opacity="0"/><use xlink:href="#t" transform="matrix(1,0,0,1,1054.09963113274,603.4637583294549) translate(0 14.4)"/><path d="M1060.5 806.83l.03.35.07.3.12.3.16.26.2.24.25.2.26.17.28.12.27.06 85.4.04v2l-85.64-.04-.64-.15-.58-.24-.53-.33-.48-.4-.4-.48-.34-.53-.24-.6-.15-.6-.05-.6v-30.34l2-.04zm-3.37-92.9l.6.13.6.24.52.33.48.4.4.5.34.52.24.58.16.65.02 30.9-2 .04-.02-30.7-.06-.27-.12-.3-.16-.25-.2-.24-.25-.2-.26-.17-.28-.13-.3-.07-.36-.03h-85.02v-2h85.1z" stroke="#6f7681" stroke-width=".05" fill="#6f7681"/><path d="M971.47 715.87h-1.03v-2h1.03z" fill="#6f7681"/><path d="M971.5 715.9h-1.08v-2.05h1.07zm-1.04-2v1.95h.98v-1.95z" stroke="#6f7681" stroke-width=".05" fill="#6f7681"/><path d="M1148.56 810.87h-1.03v-2h1.02z" fill="#6f7681"/><path d="M1148.6 810.9h-1.1v-2.05h1.08zm-1.04-2v1.95h.98v-1.95z" stroke="#6f7681" stroke-width=".05" fill="#6f7681"/><path d="M1042.1 762.37a13.23 13.23 0 0 1 13.23-13.23h8.34a13.23 13.23 0 0 1 13.23 13.23 13.23 13.23 0 0 1-13.23 13.24h-8.34a13.23 13.23 0 0 1-13.23-13.23z" stroke="#6f7681" stroke-width="2" fill-opacity="0"/><use xlink:href="#t" transform="matrix(1,0,0,1,1054.09963113274,753.137235673699) translate(0 14.4)"/><path d="M1060.46 1092.46l-.15.65-.23.6-.33.52-.4.48-.5.4-.52.34-.58.24-.6.15-.6.04h-85.1v-2h85.02l.35-.03.32-.07.3-.12.25-.16.24-.22.22-.24.16-.26.12-.3.06-.26v-67.04l2-.03zm.02-95.65l-2 .04V871.68l2-.03zm87.08-185.93l-85.4.04-.28.07-.3.12-.25.16-.24.2-.22.24-.16.26-.12.3-.07.3-.03.35v30.42l-2 .03v-30.52l.05-.58.14-.62.23-.58.33-.53.4-.48.5-.4.52-.34.58-.24.65-.15 85.66-.03z" stroke="#6f7681" stroke-width=".05" fill="#6f7681"/><path d="M971.47 1095.87h-1.03v-2h1.03z" fill="#6f7681"/><path d="M971.5 1095.9h-1.08v-2.05h1.07zm-1.04-2v1.95h.98v-1.95z" stroke="#6f7681" stroke-width=".05" fill="#6f7681"/><path d="M1148.56 810.87h-1.03v-2h1.02z" fill="#6f7681"/><path d="M1148.6 810.9h-1.1v-2.05h1.08zm-1.04-2v1.95h.98v-1.95z" stroke="#6f7681" stroke-width=".05" fill="#6f7681"/><path d="M1042.1 1011a13.23 13.23 0 0 1 13.23-13.24h8.34a13.23 13.23 0 0 1 13.23 13.24 13.23 13.23 0 0 1-13.23 13.23h-8.34a13.23 13.23 0 0 1-13.23-13.23z" stroke="#6f7681" stroke-width="2" fill-opacity="0"/><use xlink:href="#t" transform="matrix(1,0,0,1,1054.09963113274,1001.7633028440672) translate(0 14.4)"/><path d="M1060.46 902.72l-.15.65-.23.58-.33.53-.4.48-.5.4-.52.34-.58.24-.6.14-.6.05h-85.1v-2h85.02l.35-.03.32-.07.3-.12.25-.16.24-.2.22-.24.16-.26.12-.3.06-.26.02-30.8 2-.03zm87.1-91.85l-85.4.04-.28.07-.3.12-.25.16-.24.2-.22.24-.16.26-.12.3-.07.3-.03.35v30.42l-2 .03v-30.52l.05-.58.14-.62.23-.58.33-.53.4-.48.5-.4.52-.34.58-.24.65-.15 85.66-.03z" stroke="#6f7681" stroke-width=".05" fill="#6f7681"/><path d="M971.47 906.13h-1.03v-2h1.03z" fill="#6f7681"/><path d="M971.5 906.15h-1.08v-2.05h1.07zm-1.04-2v1.95h.98v-1.95z" stroke="#6f7681" stroke-width=".05" fill="#6f7681"/><path d="M1148.56 810.87h-1.03v-2h1.02z" fill="#6f7681"/><path d="M1148.6 810.9h-1.1v-2.05h1.08zm-1.04-2v1.95h.98v-1.95z" stroke="#6f7681" stroke-width=".05" fill="#6f7681"/><path d="M1042.1 857.5a13.23 13.23 0 0 1 13.23-13.23h8.34a13.23 13.23 0 0 1 13.23 13.23 13.23 13.23 0 0 1-13.23 13.23h-8.34a13.23 13.23 0 0 1-13.23-13.23z" stroke="#6f7681" stroke-width="2" fill-opacity="0"/><g><use xlink:href="#t" transform="matrix(1,0,0,1,1054.09963113274,848.266) translate(0 14.4)"/></g><defs><linearGradient gradientUnits="userSpaceOnUse" id="a" x1="469.5" y1="465.13" x2="469.5" y2="585.13"><stop offset="0%" stop-color="#fff"/><stop offset="34.27%" stop-color="#fff"/><stop offset="100%" stop-color="#dbdbdb"/></linearGradient><path fill="#282c33" d="M53-700h493v71H342V0h-76v-629H53v-71" id="u"/><path fill="#282c33" d="M441-337c-1-137-231-107-299-55l-30-64c55-28 117-51 199-50 119 2 203 50 203 169V0h-73v-79C409-37 341 1 263 0 158-2 83-42 83-143c0-154 205-168 358-142v-52zm0 113c-94-17-273-32-279 73-4 66 40 86 106 86 80 0 147-35 173-94v-65" id="v"/><path fill="#282c33" d="M330-436c-90 0-149 46-183 106V0H73v-500h74v92c42-57 105-104 197-104 116 0 182 67 182 186V0h-74v-316c-1-79-44-120-122-120" id="w"/><path fill="#282c33" d="M130-268l288-232h113L320-329 544 0h-97L256-285 130-181V0H56v-750h74v482" id="x"/><g id="b"><use transform="matrix(0.02244444444444444,0,0,0.02244444444444444,0,0)" xlink:href="#u"/><use transform="matrix(0.02244444444444444,0,0,0.02244444444444444,13.466666666666665,0)" xlink:href="#v"/><use transform="matrix(0.02244444444444444,0,0,0.02244444444444444,26.93333333333333,0)" xlink:href="#w"/><use transform="matrix(0.02244444444444444,0,0,0.02244444444444444,40.39999999999999,0)" xlink:href="#x"/></g><path fill="#282c33" d="M300 9C78 9-1-235 58-461c30-113 104-206 242-206 180 0 260 153 260 338 0 147-59 256-154 311C374 0 339 9 300 9zm82-574c-38-31-110-38-158-7-88 56-136 208-96 344 10 32 23 60 39 85zM220-89c39 30 110 36 156 4 84-58 136-206 96-341-10-31-23-59-38-83" id="y"/><use transform="matrix(0.02244444444444444,0,0,0.02244444444444444,0,0)" xlink:href="#y" id="c"/><linearGradient gradientUnits="userSpaceOnUse" id="d" x1="469.5" y1="655.13" x2="469.5" y2="775.13"><stop offset="0%" stop-color="#fff"/><stop offset="34.27%" stop-color="#fff"/><stop offset="100%" stop-color="#dbdbdb"/></linearGradient><path fill="#282c33" d="M268-572c-62 18-135 34-197 53l-23-67 245-67h49v584h209V0H48v-69h220v-503" id="z"/><use transform="matrix(0.02244444444444444,0,0,0.02244444444444444,0,0)" xlink:href="#z" id="e"/><linearGradient gradientUnits="userSpaceOnUse" id="f" x1="469.5" y1="845.13" x2="469.5" y2="965.13"><stop offset="0%" stop-color="#fff"/><stop offset="34.27%" stop-color="#fff"/><stop offset="100%" stop-color="#dbdbdb"/></linearGradient><path fill="#282c33" d="M300-666c127 0 217 64 217 192 0 82-66 139-117 194-66 70-156 144-226 210h364V0H62v-53c114-120 250-221 349-345 22-29 33-56 33-80 0-82-67-117-151-119-70-2-137 39-173 76l-50-39c47-63 124-106 230-106" id="A"/><use transform="matrix(0.02244444444444444,0,0,0.02244444444444444,0,0)" xlink:href="#A" id="g"/><linearGradient gradientUnits="userSpaceOnUse" id="h" x1="469.5" y1="1035.13" x2="469.5" y2="1155.13"><stop offset="0%" stop-color="#fff"/><stop offset="34.27%" stop-color="#fff"/><stop offset="100%" stop-color="#dbdbdb"/></linearGradient><path fill="#282c33" d="M538-203C538-22 347 32 160-8c-38-8-72-19-102-32l24-64c46 20 129 41 198 39 101-3 183-41 183-135 0-133-159-155-295-133v-73c124 5 257-7 257-107 0-70-73-83-146-85-64-3-136 20-174 38l-23-61c117-65 418-87 418 99 0 80-49 123-112 143 85 16 150 82 150 176" id="B"/><use transform="matrix(0.02244444444444444,0,0,0.02244444444444444,0,0)" xlink:href="#B" id="i"/><path fill="#282c33" d="M508-496c-2 102-53 162-121 198L549 0h-90L311-274c-51 14-120 13-184 14V0H51v-690c204-40 461-26 457 194zm-76 10c5-152-160-169-305-147v305c152 3 300-12 305-158" id="C"/><path fill="#282c33" d="M283-69c72 0 129-29 162-70v-361h76V0h-76v-79C417-36 357 2 285 1 144 0 75-76 76-223v-277h73v281c0 96 43 150 134 150" id="D"/><path fill="#282c33" d="M304 7C148 7 59-90 59-251c0-156 89-257 239-257 156 0 240 97 240 257C538-97 453 7 304 7zm1-70c105 0 162-78 162-188 0-114-57-187-169-187-103 0-163 80-163 187 0 113 61 188 170 188" id="E"/><path fill="#282c33" d="M495-660c-81-53-232-25-226 89v71h241l-10 69H269v362h259V0H67v-69h128v-362H75l10-69h110v-81c7-116 92-174 208-174 52 0 93 17 130 40" id="F"/><g id="j"><use transform="matrix(0.02466666666666666,0,0,0.02466666666666666,0,0)" xlink:href="#C"/><use transform="matrix(0.02466666666666666,0,0,0.02466666666666666,14.799999999999995,0)" xlink:href="#D"/><use transform="matrix(0.02466666666666666,0,0,0.02466666666666666,29.59999999999999,0)" xlink:href="#w"/><use transform="matrix(0.02466666666666666,0,0,0.02466666666666666,44.399999999999984,0)" xlink:href="#E"/><use transform="matrix(0.02466666666666666,0,0,0.02466666666666666,59.19999999999998,0)" xlink:href="#F"/><use transform="matrix(0.02466666666666666,0,0,0.02466666666666666,73.99999999999997,0)" xlink:href="#F"/></g><path fill="#282c33" d="M543-477c0 220-188 278-411 259V0H56v-690c56-10 117-18 180-18 175 2 307 57 307 231zm-76 10c3-167-174-186-335-163v345c167 17 333-16 335-182" id="G"/><path fill="#282c33" d="M271-395c26-77 110-132 213-101 20 6 42 16 65 29l-40 63c-24-14-55-27-85-27-84 0-128 60-153 125v237h171V0H51v-69h146v-361H60v-70h211v105" id="H"/><path fill="#282c33" d="M332 5C157 5 51-77 51-251c0-161 96-258 251-258 159 0 232 113 236 277H126c9 116 91 167 211 167 55 0 120-18 161-43l27 64C477-12 401 5 332 5zm128-310c-14-92-104-156-214-125-60 17-102 60-116 125h330" id="I"/><path fill="#282c33" d="M366-67c50 0 97-14 133-32l27 63C476-11 424 5 353 5 179 5 64-87 64-253c0-189 164-282 368-247 25 4 50 15 75 26l-25 66c-37-15-79-27-126-27-123 0-214 62-214 182 0 126 98 186 224 186" id="J"/><path fill="#282c33" d="M50-69h216v-361H50v-70h290v431h210V0H50v-69zm242-555c-35 0-65-30-65-65s30-65 65-65 65 30 65 65-30 65-65 65" id="K"/><path fill="#282c33" d="M237 8c-38 0-61-6-93-13v190H71v-685h73v32c47-25 95-38 144-38 148 0 238 93 238 245C526-82 414 8 237 8zm31-446c-50 0-92 15-124 37v328c30 10 50 16 89 16 136-3 221-65 221-204 0-115-73-177-186-177" id="L"/><path fill="#282c33" d="M551 5C425 2 301 18 264-74c-35-86-18-237-22-357H48l10-69h184v-97l74-18v115h227l-10 69H316c2 88-5 212 8 283 17 94 111 81 227 83V5" id="M"/><g id="k"><use transform="matrix(0.02244444444444444,0,0,0.02244444444444444,0,0)" xlink:href="#G"/><use transform="matrix(0.02244444444444444,0,0,0.02244444444444444,13.466666666666665,0)" xlink:href="#H"/><use transform="matrix(0.02244444444444444,0,0,0.02244444444444444,26.93333333333333,0)" xlink:href="#I"/><use transform="matrix(0.02244444444444444,0,0,0.02244444444444444,40.39999999999999,0)" xlink:href="#J"/><use transform="matrix(0.02244444444444444,0,0,0.02244444444444444,53.86666666666666,0)" xlink:href="#K"/><use transform="matrix(0.02244444444444444,0,0,0.02244444444444444,67.33333333333333,0)" xlink:href="#L"/><use transform="matrix(0.02244444444444444,0,0,0.02244444444444444,80.8,0)" xlink:href="#K"/><use transform="matrix(0.02244444444444444,0,0,0.02244444444444444,94.26666666666667,0)" xlink:href="#M"/><use transform="matrix(0.02244444444444444,0,0,0.02244444444444444,107.73333333333333,0)" xlink:href="#v"/><use transform="matrix(0.02244444444444444,0,0,0.02244444444444444,121.2,0)" xlink:href="#M"/><use transform="matrix(0.02244444444444444,0,0,0.02244444444444444,134.66666666666666,0)" xlink:href="#K"/><use transform="matrix(0.02244444444444444,0,0,0.02244444444444444,148.13333333333333,0)" xlink:href="#E"/><use transform="matrix(0.02244444444444444,0,0,0.02244444444444444,161.6,0)" xlink:href="#w"/></g><path fill="#282c33" d="M144-71h387V0H68v-700h444v71H144v227h330v71H144v260" id="N"/><path fill="#282c33" d="M333 0h-67L69-500h85l147 400 147-400h82" id="O"/><path fill="#282c33" d="M118-359c0-167 249-158 378-112l-27 67c-35-19-89-26-144-26-59 0-120 6-126 60 5 35 47 45 81 58 73 28 161 49 206 104 15 18 23 40 23 66 2 184-291 164-407 98l28-66c50 18 112 40 176 40 59 0 123-17 124-71-14-64-98-71-156-95-66-26-156-42-156-123" id="P"/><g id="l"><use transform="matrix(0.02244444444444444,0,0,0.02244444444444444,0,0)" xlink:href="#N"/><use transform="matrix(0.02244444444444444,0,0,0.02244444444444444,13.466666666666665,0)" xlink:href="#O"/><use transform="matrix(0.02244444444444444,0,0,0.02244444444444444,26.93333333333333,0)" xlink:href="#v"/><use transform="matrix(0.02244444444444444,0,0,0.02244444444444444,40.39999999999999,0)" xlink:href="#L"/><use transform="matrix(0.02244444444444444,0,0,0.02244444444444444,53.86666666666666,0)" xlink:href="#E"/><use transform="matrix(0.02244444444444444,0,0,0.02244444444444444,67.33333333333333,0)" xlink:href="#M"/><use transform="matrix(0.02244444444444444,0,0,0.02244444444444444,80.8,0)" xlink:href="#H"/><use transform="matrix(0.02244444444444444,0,0,0.02244444444444444,94.26666666666667,0)" xlink:href="#v"/><use transform="matrix(0.02244444444444444,0,0,0.02244444444444444,107.73333333333333,0)" xlink:href="#w"/><use transform="matrix(0.02244444444444444,0,0,0.02244444444444444,121.2,0)" xlink:href="#P"/><use transform="matrix(0.02244444444444444,0,0,0.02244444444444444,134.66666666666666,0)" xlink:href="#L"/><use transform="matrix(0.02244444444444444,0,0,0.02244444444444444,148.13333333333333,0)" xlink:href="#K"/><use transform="matrix(0.02244444444444444,0,0,0.02244444444444444,161.6,0)" xlink:href="#H"/><use transform="matrix(0.02244444444444444,0,0,0.02244444444444444,175.06666666666666,0)" xlink:href="#v"/><use transform="matrix(0.02244444444444444,0,0,0.02244444444444444,188.53333333333333,0)" xlink:href="#M"/><use transform="matrix(0.02244444444444444,0,0,0.02244444444444444,202,0)" xlink:href="#K"/><use transform="matrix(0.02244444444444444,0,0,0.02244444444444444,215.46666666666667,0)" xlink:href="#E"/><use transform="matrix(0.02244444444444444,0,0,0.02244444444444444,228.93333333333334,0)" xlink:href="#w"/></g><path fill="#282c33" d="M77-530c-3-198 283-211 436-143l-29 68c-91-39-330-66-330 68 0 57 57 79 102 102 88 45 201 76 260 149 19 23 29 50 29 83C545 32 227 36 54-44l30-74c110 51 384 84 384-82 0-57-56-77-102-100-89-44-202-73-260-146-19-23-29-51-29-84" id="Q"/><g id="m"><use transform="matrix(0.01799999999999999,0,0,0.01799999999999999,0,0)" xlink:href="#Q"/><use transform="matrix(0.01799999999999999,0,0,0.01799999999999999,10.799999999999995,0)" xlink:href="#D"/><use transform="matrix(0.01799999999999999,0,0,0.01799999999999999,21.59999999999999,0)" xlink:href="#H"/><use transform="matrix(0.01799999999999999,0,0,0.01799999999999999,32.399999999999984,0)" xlink:href="#F"/><use transform="matrix(0.01799999999999999,0,0,0.01799999999999999,43.19999999999998,0)" xlink:href="#v"/><use transform="matrix(0.01799999999999999,0,0,0.01799999999999999,53.99999999999997,0)" xlink:href="#J"/><use transform="matrix(0.01799999999999999,0,0,0.01799999999999999,64.79999999999997,0)" xlink:href="#I"/></g><path fill="#282c33" d="M195-706c227 0 354 124 356 356C553-106 427 8 189 8 144 8 89 2 48-6v-684c43-9 99-16 147-16zm280 356c0-210-139-308-351-277v557c220 29 351-63 351-280" id="R"/><path fill="#282c33" d="M330-436c-90 0-149 46-183 106V0H73v-750h74v342c42-57 105-104 197-104 116 0 182 67 182 186V0h-74v-316c-1-79-44-120-122-120" id="S"/><path fill="#282c33" d="M124 71c108 66 354 70 334-111-43 25-83 41-144 41C162 1 66-80 66-234c0-184 105-281 286-281 73 0 124 14 179 35v465c-1 175-185 229-355 187-34-8-62-23-86-41zM315-68c62 0 100-20 143-47v-315c-33-9-58-16-99-15-136 3-216 72-218 211-2 109 68 166 174 166" id="T"/><g id="n"><use transform="matrix(0.01799999999999999,0,0,0.01799999999999999,0,0)" xlink:href="#R"/><use transform="matrix(0.01799999999999999,0,0,0.01799999999999999,10.799999999999995,0)" xlink:href="#K"/><use transform="matrix(0.01799999999999999,0,0,0.01799999999999999,21.59999999999999,0)" xlink:href="#P"/><use transform="matrix(0.01799999999999999,0,0,0.01799999999999999,32.399999999999984,0)" xlink:href="#J"/><use transform="matrix(0.01799999999999999,0,0,0.01799999999999999,43.19999999999998,0)" xlink:href="#S"/><use transform="matrix(0.01799999999999999,0,0,0.01799999999999999,53.99999999999997,0)" xlink:href="#v"/><use transform="matrix(0.01799999999999999,0,0,0.01799999999999999,64.79999999999997,0)" xlink:href="#H"/><use transform="matrix(0.01799999999999999,0,0,0.01799999999999999,75.59999999999997,0)" xlink:href="#T"/><use transform="matrix(0.01799999999999999,0,0,0.01799999999999999,86.39999999999996,0)" xlink:href="#I"/></g><path fill="#282c33" d="M62-700h474v71H342v558h204V0H53v-71h213v-558H62v-71" id="U"/><path fill="#282c33" d="M222-435c-55 0-77 45-77 98V0H71v-500h74v63c14-39 47-71 92-71s77 33 85 77c21-41 53-78 109-78 87 0 99 78 99 173V0h-74v-336c-2-58-1-91-41-99-45 6-69 41-69 89V0h-74v-336c1-50-13-99-50-99" id="V"/><path fill="#282c33" d="M70-234c0-204 168-318 389-269v-247h74V0h-74v-40C416-13 379 6 314 6 160 6 70-85 70-234zM318-64c60 0 102-19 141-44v-323c-31-10-65-15-100-15-132 0-214 81-214 209 0 107 63 173 173 173" id="W"/><g id="o"><use transform="matrix(0.01799999999999999,0,0,0.01799999999999999,0,0)" xlink:href="#U"/><use transform="matrix(0.01799999999999999,0,0,0.01799999999999999,10.799999999999995,0)" xlink:href="#w"/><use transform="matrix(0.01799999999999999,0,0,0.01799999999999999,21.59999999999999,0)" xlink:href="#M"/><use transform="matrix(0.01799999999999999,0,0,0.01799999999999999,32.399999999999984,0)" xlink:href="#I"/><use transform="matrix(0.01799999999999999,0,0,0.01799999999999999,43.19999999999998,0)" xlink:href="#H"/><use transform="matrix(0.01799999999999999,0,0,0.01799999999999999,53.99999999999997,0)" xlink:href="#V"/><use transform="matrix(0.01799999999999999,0,0,0.01799999999999999,64.79999999999997,0)" xlink:href="#I"/><use transform="matrix(0.01799999999999999,0,0,0.01799999999999999,75.59999999999997,0)" xlink:href="#W"/><use transform="matrix(0.01799999999999999,0,0,0.01799999999999999,86.39999999999996,0)" xlink:href="#K"/><use transform="matrix(0.01799999999999999,0,0,0.01799999999999999,97.19999999999996,0)" xlink:href="#v"/><use transform="matrix(0.01799999999999999,0,0,0.01799999999999999,107.99999999999994,0)" xlink:href="#M"/><use transform="matrix(0.01799999999999999,0,0,0.01799999999999999,118.79999999999995,0)" xlink:href="#I"/></g><path fill="#282c33" d="M241 6C177 6 119 0 70-26v-724h73v271c37-17 85-30 137-30 157 0 256 89 256 248C536-88 412 6 241 6zm36-447c-52 0-101 12-134 34v333c160 44 323-25 320-187-2-115-75-180-186-180" id="X"/><path fill="#282c33" d="M68-245v-74h463v74H68" id="Y"/><path fill="#282c33" d="M379-390c90 17 161 77 161 171C540 2 281 24 59-6v-684c179-32 439-28 439 156 0 85-51 127-119 144zM135-70c151 13 330 3 330-147 0-135-189-138-330-125v272zm287-454c0-122-169-121-287-106v217c104 7 213-3 265-56 15-15 22-33 22-55" id="Z"/><g id="p"><use transform="matrix(0.01799999999999999,0,0,0.01799999999999999,0,0)" xlink:href="#Q"/><use transform="matrix(0.01799999999999999,0,0,0.01799999999999999,10.799999999999995,0)" xlink:href="#D"/><use transform="matrix(0.01799999999999999,0,0,0.01799999999999999,21.59999999999999,0)" xlink:href="#X"/><use transform="matrix(0.01799999999999999,0,0,0.01799999999999999,32.399999999999984,0)" xlink:href="#Y"/><use transform="matrix(0.01799999999999999,0,0,0.01799999999999999,43.19999999999998,0)" xlink:href="#Z"/><use transform="matrix(0.01799999999999999,0,0,0.01799999999999999,53.99999999999997,0)" xlink:href="#v"/><use transform="matrix(0.01799999999999999,0,0,0.01799999999999999,64.79999999999997,0)" xlink:href="#P"/><use transform="matrix(0.01799999999999999,0,0,0.01799999999999999,75.59999999999997,0)" xlink:href="#I"/></g><g id="q"><use transform="matrix(0.01799999999999999,0,0,0.01799999999999999,0,0)" xlink:href="#Z"/><use transform="matrix(0.01799999999999999,0,0,0.01799999999999999,10.799999999999995,0)" xlink:href="#v"/><use transform="matrix(0.01799999999999999,0,0,0.01799999999999999,21.59999999999999,0)" xlink:href="#P"/><use transform="matrix(0.01799999999999999,0,0,0.01799999999999999,32.399999999999984,0)" xlink:href="#I"/></g><use transform="matrix(0.02244444444444444,0,0,0.02244444444444444,0,0)" xlink:href="#Y" id="r"/><path fill="#282c33" d="M337-245V0h-74v-245H58v-74h205v-227h74v227h204v74H337" id="aa"/><use transform="matrix(0.02244444444444444,0,0,0.02244444444444444,0,0)" xlink:href="#aa" id="s"/><use transform="matrix(0.018,0,0,0.018,0,0)" xlink:href="#aa" id="t"/></defs></g></svg>