<svg xmlns="http://www.w3.org/2000/svg" xmlns:xlink="http://www.w3.org/1999/xlink" xmlns:lucid="lucid" width="901" height="1305.07"><g transform="translate(-340 -178.926)" lucid:page-tab-id="Zq1UPR1CHgUr"><path d="M401 1461h338v2H401zM401 1459v-218h2v218zM677 1419v-178h2v178zM677 1421h62v2h-62zM401 1161h118v2H401zM401 1159V941h2v218zM677 1039v-98h2v98zM677 1163v-82h2v82zM677 1041h62v2h-62zM677 1077h62v2h-62zM559 1161v58h-2v-58zM523 1161v58h-2v-58z" stroke="#282c33" stroke-width="2" fill="none"/><path d="M561 1161h118v2H561zM401 861h118v2H401zM401 859V641h2v218zM677 739v-98h2v98zM677 863v-82h2v82zM677 741h62v2h-62zM677 777h62v2h-62zM559 861v58h-2v-58zM523 861v58h-2v-58z" stroke="#282c33" stroke-width="2" fill="none"/><path d="M561 861h118v2H561zM401 561h118v2H401zM401 559V321h2v238zM681 459v-38h2v38zM681 563v-62h2v62zM681 461h62v2h-62zM681 497h62v2h-62zM559 561v58h-2v-58zM523 561v58h-2v-58zM561 561h118v2H561zM681 381h62v2h-62zM681 417h62v2h-62zM681 379v-58h2v58z" stroke="#282c33" stroke-width="2" fill="none"/><path d="M400 198.93h140v42.14H400z" stroke="#cc4e00" stroke-width="4" fill-opacity="0"/><use xlink:href="#a" transform="matrix(1,0,0,1,405,203.926) translate(32.73333333333335 24.21711111111111)"/><path d="M560 198.93h124v42.14H560z" stroke="#008a0e" stroke-width="4" fill-opacity="0"/><use xlink:href="#b" transform="matrix(1,0,0,1,564.9999999999999,203.926) translate(9.100000000000023 24.21711111111111)"/><path d="M624.3 331.54l-2.25-86.47" stroke="#008a0e" stroke-width="4" fill="none"/><path d="M624.9 355.05l-13.28-21.18 25.44-.66z" stroke="#008a0e" stroke-width="4" fill="#fff"/><path d="M624.05 245.07l-4 .1-.05-2.1h4z" stroke="#008a0e" stroke-width=".05" fill="#008a0e"/><path d="M470 358.13v-87.6M470 358.08v2.05" stroke="#cc4e00" stroke-width="4" fill="none"/><path d="M470 247l12.73 21.52h-25.46z" stroke="#cc4e00" stroke-width="4" fill="#fff"/><path d="M364 416v-96h40v96z" fill="#282c33"/><use xlink:href="#c" transform="matrix(6.123233995736766e-17,-1,1,6.123233995736766e-17,369,411) translate(6.600000000000001 20.80377777777778)"/><use xlink:href="#d" transform="matrix(6.123233995736766e-17,-1,1,6.123233995736766e-17,369,411) translate(67.26666666666667 20.80377777777778)"/><path d="M362.23 736v-96H404v96z" fill="#282c33"/><use xlink:href="#c" transform="matrix(6.123233995736766e-17,-1,1,6.123233995736766e-17,367.22698037505256,731) translate(7.100000000000001 21.80377777777778)"/><use xlink:href="#e" transform="matrix(6.123233995736766e-17,-1,1,6.123233995736766e-17,367.22698037505256,731) translate(67.76666666666667 21.80377777777778)"/><path d="M360 1036v-96h44v96z" fill="#282c33"/><use xlink:href="#c" transform="matrix(6.123233995736766e-17,-1,1,6.123233995736766e-17,365,1031) translate(6.600000000000001 23.30377777777778)"/><use xlink:href="#f" transform="matrix(6.123233995736766e-17,-1,1,6.123233995736766e-17,365,1031) translate(67.26666666666667 23.30377777777778)"/><path d="M362.23 1336v-96H404v96z" fill="#282c33"/><use xlink:href="#c" transform="matrix(6.123233995736766e-17,-1,1,6.123233995736766e-17,367.22698037505256,1331) translate(7.100000000000001 21.80377777777778)"/><use xlink:href="#g" transform="matrix(6.123233995736766e-17,-1,1,6.123233995736766e-17,367.22698037505256,1331) translate(67.76666666666667 21.80377777777778)"/><path d="M792.67 762H742v-4h50.67zm403.7 0h-49.04v-4h49.03z" stroke="#282c33" stroke-width=".05" fill="#282c33"/><path d="M742.05 762H740v-4h2.05zM1200 760l-20.13 11.9-2.03-3.44 14.3-8.46-14.3-8.46 2.03-3.44z" stroke="#282c33" stroke-width=".05" fill="#282c33"/><use xlink:href="#h" transform="matrix(1,0,0,1,792.6666666666667,744.04) translate(0 24.888888888888886)"/><use xlink:href="#i" transform="matrix(1,0,0,1,792.6666666666667,744.04) translate(242.66666666666657 24.888888888888886)"/><path d="M830 1062h-88v-4h88zm366.36 0H1110v-4h86.36z" stroke="#282c33" stroke-width=".05" fill="#282c33"/><path d="M742.05 1062H740v-4h2.05zM1200 1060l-20.13 11.9-2.03-3.44 14.3-8.46-14.3-8.46 2.03-3.44z" stroke="#282c33" stroke-width=".05" fill="#282c33"/><use xlink:href="#j" transform="matrix(1,0,0,1,830,1044.04) translate(0 24.888888888888886)"/><use xlink:href="#k" transform="matrix(1,0,0,1,830,1044.04) translate(167.99999999999994 24.888888888888886)"/><path d="M867.33 1442H742v-4h125.33zm329.03 0h-123.7v-4h123.7z" stroke="#282c33" stroke-width=".05" fill="#282c33"/><path d="M742.05 1442H740v-4h2.05zM1200 1440l-20.13 11.9-2.03-3.44 14.3-8.46-14.3-8.46 2.03-3.44z" stroke="#282c33" stroke-width=".05" fill="#282c33"/><use xlink:href="#l" transform="matrix(1,0,0,1,867.3333333333334,1424.04) translate(0 24.888888888888886)"/><use xlink:href="#k" transform="matrix(1,0,0,1,867.3333333333334,1424.04) translate(93.33333333333331 24.888888888888886)"/><path d="M1196.36 438v4h-77.77v-4zm-406.52-39.94l.76.18.73.3.67.4.6.52.5.6.42.67.3.72.2.84.04 34.62.02.24.03.15.07.15.08.13.1.12.12.1.14.1.15.05h.08l62.43.02v4h-62.9l-.85-.2-.72-.3-.66-.42-.6-.5-.5-.6-.42-.68-.3-.72-.2-.77-.04-.7-.04-34.3-.02-.1-.06-.13-.08-.13-.1-.12-.12-.1-.13-.1-.14-.05-.15-.03-.22-.02H742v-4h47.14z" stroke="#282c33" stroke-width=".05" fill="#282c33"/><path d="M742.05 402H740v-4h2.05zM1200 440l-20.13 11.9-2.03-3.44 14.3-8.46-14.3-8.46 2.03-3.44z" stroke="#282c33" stroke-width=".05" fill="#282c33"/><path d="M857.26 442.03h-62.43l-.08.02-.14.06-.13.1-.12.1-.1.12-.08.13-.06.14-.02.14-.02.24-.04 34.63-.2.85-.3.72-.4.67-.52.6-.6.5-.67.42-.73.3-.76.18-.7.06H742v-4h46.98l.23-.02.16-.03.15-.06.14-.1.12-.1.1-.12.08-.13.06-.14.02-.07.04-34.3.05-.7.2-.78.3-.72.4-.67.52-.6.6-.5.66-.42.73-.3.85-.2h62.9zm339.1-.03h-77.77v-4h77.76z" stroke="#282c33" stroke-width=".05" fill="#282c33"/><path d="M742.05 482H740v-4h2.05zM1200 440l-20.13 11.9-2.03-3.44 14.3-8.46-14.3-8.46 2.03-3.44z" stroke="#282c33" stroke-width=".05" fill="#282c33"/><use xlink:href="#m" transform="matrix(1,0,0,1,857.2604092384089,424.04) translate(0 24.888888888888886)"/><use xlink:href="#k" transform="matrix(1,0,0,1,857.2604092384089,424.04) translate(149.3333333333333 24.888888888888886)"/><path d="M542 996.36h-4v-29.22h4zm0-56.8h-4V882h4z" stroke="#282c33" stroke-width=".05" fill="#282c33"/><path d="M542 882.05h-4V880h4zM551.9 979.87L540 1000l-11.9-20.13 3.44-2.03 8.46 14.3 8.46-14.3z" stroke="#282c33" stroke-width=".05" fill="#282c33"/><use xlink:href="#n" transform="matrix(1,0,0,1,451.2666666666667,939.5496600324359) translate(0 21.511111111111106)"/><path d="M542 1296.36h-4v-30.16h4zm0-57.74h-4V1182h4z" stroke="#282c33" stroke-width=".05" fill="#282c33"/><path d="M542 1182.05h-4V1180h4zM551.9 1279.87L540 1300l-11.9-20.13 3.44-2.03 8.46 14.3 8.46-14.3z" stroke="#282c33" stroke-width=".05" fill="#282c33"/><g><use xlink:href="#n" transform="matrix(1,0,0,1,451.2666666666667,1238.6163477278337) translate(0 21.511111111111106)"/></g><path d="M542 696.36h-4V666.4h4zm0-57.54h-4V582h4z" stroke="#282c33" stroke-width=".05" fill="#282c33"/><path d="M542 582.05h-4V580h4zM551.9 679.87L540 700l-11.9-20.13 3.44-2.03 8.46 14.3 8.46-14.3z" stroke="#282c33" stroke-width=".05" fill="#282c33"/><g><use xlink:href="#o" transform="matrix(1,0,0,1,443.20000000000005,638.818111166354) translate(0 21.511111111111106)"/></g><defs><path fill="#282c33" d="M144-71h387V0H68v-700h444v71H144v227h330v71H144v260" id="p"/><path fill="#282c33" d="M333 0h-67L69-500h85l147 400 147-400h82" id="q"/><path fill="#282c33" d="M441-337c-1-137-231-107-299-55l-30-64c55-28 117-51 199-50 119 2 203 50 203 169V0h-73v-79C409-37 341 1 263 0 158-2 83-42 83-143c0-154 205-168 358-142v-52zm0 113c-94-17-273-32-279 73-4 66 40 86 106 86 80 0 147-35 173-94v-65" id="r"/><path fill="#282c33" d="M237 8c-38 0-61-6-93-13v190H71v-685h73v32c47-25 95-38 144-38 148 0 238 93 238 245C526-82 414 8 237 8zm31-446c-50 0-92 15-124 37v328c30 10 50 16 89 16 136-3 221-65 221-204 0-115-73-177-186-177" id="s"/><g id="a"><use transform="matrix(0.02688888888888888,0,0,0.02688888888888888,0,0)" xlink:href="#p"/><use transform="matrix(0.02688888888888888,0,0,0.02688888888888888,16.133333333333326,0)" xlink:href="#q"/><use transform="matrix(0.02688888888888888,0,0,0.02688888888888888,32.26666666666665,0)" xlink:href="#r"/><use transform="matrix(0.02688888888888888,0,0,0.02688888888888888,48.39999999999998,0)" xlink:href="#s"/></g><path fill="#282c33" d="M543-477c0 220-188 278-411 259V0H56v-690c56-10 117-18 180-18 175 2 307 57 307 231zm-76 10c3-167-174-186-335-163v345c167 17 333-16 335-182" id="t"/><path fill="#282c33" d="M271-395c26-77 110-132 213-101 20 6 42 16 65 29l-40 63c-24-14-55-27-85-27-84 0-128 60-153 125v237h171V0H51v-69h146v-361H60v-70h211v105" id="u"/><path fill="#282c33" d="M332 5C157 5 51-77 51-251c0-161 96-258 251-258 159 0 232 113 236 277H126c9 116 91 167 211 167 55 0 120-18 161-43l27 64C477-12 401 5 332 5zm128-310c-14-92-104-156-214-125-60 17-102 60-116 125h330" id="v"/><path fill="#282c33" d="M366-67c50 0 97-14 133-32l27 63C476-11 424 5 353 5 179 5 64-87 64-253c0-189 164-282 368-247 25 4 50 15 75 26l-25 66c-37-15-79-27-126-27-123 0-214 62-214 182 0 126 98 186 224 186" id="w"/><path fill="#282c33" d="M50-69h216v-361H50v-70h290v431h210V0H50v-69zm242-555c-35 0-65-30-65-65s30-65 65-65 65 30 65 65-30 65-65 65" id="x"/><g id="b"><use transform="matrix(0.02688888888888888,0,0,0.02688888888888888,0,0)" xlink:href="#t"/><use transform="matrix(0.02688888888888888,0,0,0.02688888888888888,16.133333333333326,0)" xlink:href="#u"/><use transform="matrix(0.02688888888888888,0,0,0.02688888888888888,32.26666666666665,0)" xlink:href="#v"/><use transform="matrix(0.02688888888888888,0,0,0.02688888888888888,48.39999999999998,0)" xlink:href="#w"/><use transform="matrix(0.02688888888888888,0,0,0.02688888888888888,64.5333333333333,0)" xlink:href="#x"/><use transform="matrix(0.02688888888888888,0,0,0.02688888888888888,80.66666666666663,0)" xlink:href="#s"/></g><path fill="#fff" d="M53-700h493v71H342V0h-76v-629H53v-71" id="y"/><path fill="#fff" d="M441-337c-1-137-231-107-299-55l-30-64c55-28 117-51 199-50 119 2 203 50 203 169V0h-73v-79C409-37 341 1 263 0 158-2 83-42 83-143c0-154 205-168 358-142v-52zm0 113c-94-17-273-32-279 73-4 66 40 86 106 86 80 0 147-35 173-94v-65" id="z"/><path fill="#fff" d="M330-436c-90 0-149 46-183 106V0H73v-500h74v92c42-57 105-104 197-104 116 0 182 67 182 186V0h-74v-316c-1-79-44-120-122-120" id="A"/><path fill="#fff" d="M130-268l288-232h113L320-329 544 0h-97L256-285 130-181V0H56v-750h74v482" id="B"/><g id="c"><use transform="matrix(0.02022222222222222,0,0,0.02022222222222222,0,0)" xlink:href="#y"/><use transform="matrix(0.02022222222222222,0,0,0.02022222222222222,12.133333333333333,0)" xlink:href="#z"/><use transform="matrix(0.02022222222222222,0,0,0.02022222222222222,24.266666666666666,0)" xlink:href="#A"/><use transform="matrix(0.02022222222222222,0,0,0.02022222222222222,36.4,0)" xlink:href="#B"/></g><path fill="#fff" d="M300 9C78 9-1-235 58-461c30-113 104-206 242-206 180 0 260 153 260 338 0 147-59 256-154 311C374 0 339 9 300 9zm82-574c-38-31-110-38-158-7-88 56-136 208-96 344 10 32 23 60 39 85zM220-89c39 30 110 36 156 4 84-58 136-206 96-341-10-31-23-59-38-83" id="C"/><use transform="matrix(0.02022222222222222,0,0,0.02022222222222222,0,0)" xlink:href="#C" id="d"/><path fill="#fff" d="M268-572c-62 18-135 34-197 53l-23-67 245-67h49v584h209V0H48v-69h220v-503" id="D"/><use transform="matrix(0.02022222222222222,0,0,0.02022222222222222,0,0)" xlink:href="#D" id="e"/><path fill="#fff" d="M300-666c127 0 217 64 217 192 0 82-66 139-117 194-66 70-156 144-226 210h364V0H62v-53c114-120 250-221 349-345 22-29 33-56 33-80 0-82-67-117-151-119-70-2-137 39-173 76l-50-39c47-63 124-106 230-106" id="E"/><use transform="matrix(0.02022222222222222,0,0,0.02022222222222222,0,0)" xlink:href="#E" id="f"/><path fill="#fff" d="M538-203C538-22 347 32 160-8c-38-8-72-19-102-32l24-64c46 20 129 41 198 39 101-3 183-41 183-135 0-133-159-155-295-133v-73c124 5 257-7 257-107 0-70-73-83-146-85-64-3-136 20-174 38l-23-61c117-65 418-87 418 99 0 80-49 123-112 143 85 16 150 82 150 176" id="F"/><use transform="matrix(0.02022222222222222,0,0,0.02022222222222222,0,0)" xlink:href="#F" id="g"/><path d="M62-700h474v71H342v558h204V0H53v-71h213v-558H62v-71" id="G"/><path d="M330-436c-90 0-149 46-183 106V0H73v-500h74v92c42-57 105-104 197-104 116 0 182 67 182 186V0h-74v-316c-1-79-44-120-122-120" id="H"/><path d="M551 5C425 2 301 18 264-74c-35-86-18-237-22-357H48l10-69h184v-97l74-18v115h227l-10 69H316c2 88-5 212 8 283 17 94 111 81 227 83V5" id="I"/><path d="M332 5C157 5 51-77 51-251c0-161 96-258 251-258 159 0 232 113 236 277H126c9 116 91 167 211 167 55 0 120-18 161-43l27 64C477-12 401 5 332 5zm128-310c-14-92-104-156-214-125-60 17-102 60-116 125h330" id="J"/><path d="M271-395c26-77 110-132 213-101 20 6 42 16 65 29l-40 63c-24-14-55-27-85-27-84 0-128 60-153 125v237h171V0H51v-69h146v-361H60v-70h211v105" id="K"/><path d="M222-435c-55 0-77 45-77 98V0H71v-500h74v63c14-39 47-71 92-71s77 33 85 77c21-41 53-78 109-78 87 0 99 78 99 173V0h-74v-336c-2-58-1-91-41-99-45 6-69 41-69 89V0h-74v-336c1-50-13-99-50-99" id="L"/><path d="M70-234c0-204 168-318 389-269v-247h74V0h-74v-40C416-13 379 6 314 6 160 6 70-85 70-234zM318-64c60 0 102-19 141-44v-323c-31-10-65-15-100-15-132 0-214 81-214 209 0 107 63 173 173 173" id="M"/><path d="M50-69h216v-361H50v-70h290v431h210V0H50v-69zm242-555c-35 0-65-30-65-65s30-65 65-65 65 30 65 65-30 65-65 65" id="N"/><path d="M441-337c-1-137-231-107-299-55l-30-64c55-28 117-51 199-50 119 2 203 50 203 169V0h-73v-79C409-37 341 1 263 0 158-2 83-42 83-143c0-154 205-168 358-142v-52zm0 113c-94-17-273-32-279 73-4 66 40 86 106 86 80 0 147-35 173-94v-65" id="O"/><g id="h"><use transform="matrix(0.031111111111111107,0,0,0.031111111111111107,0,0)" xlink:href="#G"/><use transform="matrix(0.031111111111111107,0,0,0.031111111111111107,18.666666666666664,0)" xlink:href="#H"/><use transform="matrix(0.031111111111111107,0,0,0.031111111111111107,37.33333333333333,0)" xlink:href="#I"/><use transform="matrix(0.031111111111111107,0,0,0.031111111111111107,55.99999999999999,0)" xlink:href="#J"/><use transform="matrix(0.031111111111111107,0,0,0.031111111111111107,74.66666666666666,0)" xlink:href="#K"/><use transform="matrix(0.031111111111111107,0,0,0.031111111111111107,93.33333333333331,0)" xlink:href="#L"/><use transform="matrix(0.031111111111111107,0,0,0.031111111111111107,111.99999999999997,0)" xlink:href="#J"/><use transform="matrix(0.031111111111111107,0,0,0.031111111111111107,130.66666666666663,0)" xlink:href="#M"/><use transform="matrix(0.031111111111111107,0,0,0.031111111111111107,149.3333333333333,0)" xlink:href="#N"/><use transform="matrix(0.031111111111111107,0,0,0.031111111111111107,167.99999999999994,0)" xlink:href="#O"/><use transform="matrix(0.031111111111111107,0,0,0.031111111111111107,186.6666666666666,0)" xlink:href="#I"/><use transform="matrix(0.031111111111111107,0,0,0.031111111111111107,205.33333333333326,0)" xlink:href="#J"/></g><path d="M508-496c-2 102-53 162-121 198L549 0h-90L311-274c-51 14-120 13-184 14V0H51v-690c204-40 461-26 457 194zm-76 10c5-152-160-169-305-147v305c152 3 300-12 305-158" id="P"/><path d="M283-69c72 0 129-29 162-70v-361h76V0h-76v-79C417-36 357 2 285 1 144 0 75-76 76-223v-277h73v281c0 96 43 150 134 150" id="Q"/><path d="M304 7C148 7 59-90 59-251c0-156 89-257 239-257 156 0 240 97 240 257C538-97 453 7 304 7zm1-70c105 0 162-78 162-188 0-114-57-187-169-187-103 0-163 80-163 187 0 113 61 188 170 188" id="R"/><path d="M495-660c-81-53-232-25-226 89v71h241l-10 69H269v362h259V0H67v-69h128v-362H75l10-69h110v-81c7-116 92-174 208-174 52 0 93 17 130 40" id="S"/><g id="i"><use transform="matrix(0.031111111111111107,0,0,0.031111111111111107,0,0)" xlink:href="#P"/><use transform="matrix(0.031111111111111107,0,0,0.031111111111111107,18.666666666666664,0)" xlink:href="#Q"/><use transform="matrix(0.031111111111111107,0,0,0.031111111111111107,37.33333333333333,0)" xlink:href="#H"/><use transform="matrix(0.031111111111111107,0,0,0.031111111111111107,55.99999999999999,0)" xlink:href="#R"/><use transform="matrix(0.031111111111111107,0,0,0.031111111111111107,74.66666666666666,0)" xlink:href="#S"/><use transform="matrix(0.031111111111111107,0,0,0.031111111111111107,93.33333333333331,0)" xlink:href="#S"/></g><path fill="#303030" d="M77-530c-3-198 283-211 436-143l-29 68c-91-39-330-66-330 68 0 57 57 79 102 102 88 45 201 76 260 149 19 23 29 50 29 83C545 32 227 36 54-44l30-74c110 51 384 84 384-82 0-57-56-77-102-100-89-44-202-73-260-146-19-23-29-51-29-84" id="T"/><path fill="#303030" d="M283-69c72 0 129-29 162-70v-361h76V0h-76v-79C417-36 357 2 285 1 144 0 75-76 76-223v-277h73v281c0 96 43 150 134 150" id="U"/><path fill="#303030" d="M241 6C177 6 119 0 70-26v-724h73v271c37-17 85-30 137-30 157 0 256 89 256 248C536-88 412 6 241 6zm36-447c-52 0-101 12-134 34v333c160 44 323-25 320-187-2-115-75-180-186-180" id="V"/><path fill="#303030" d="M68-245v-74h463v74H68" id="W"/><path fill="#303030" d="M379-390c90 17 161 77 161 171C540 2 281 24 59-6v-684c179-32 439-28 439 156 0 85-51 127-119 144zM135-70c151 13 330 3 330-147 0-135-189-138-330-125v272zm287-454c0-122-169-121-287-106v217c104 7 213-3 265-56 15-15 22-33 22-55" id="X"/><path fill="#303030" d="M441-337c-1-137-231-107-299-55l-30-64c55-28 117-51 199-50 119 2 203 50 203 169V0h-73v-79C409-37 341 1 263 0 158-2 83-42 83-143c0-154 205-168 358-142v-52zm0 113c-94-17-273-32-279 73-4 66 40 86 106 86 80 0 147-35 173-94v-65" id="Y"/><path fill="#303030" d="M118-359c0-167 249-158 378-112l-27 67c-35-19-89-26-144-26-59 0-120 6-126 60 5 35 47 45 81 58 73 28 161 49 206 104 15 18 23 40 23 66 2 184-291 164-407 98l28-66c50 18 112 40 176 40 59 0 123-17 124-71-14-64-98-71-156-95-66-26-156-42-156-123" id="Z"/><path fill="#303030" d="M332 5C157 5 51-77 51-251c0-161 96-258 251-258 159 0 232 113 236 277H126c9 116 91 167 211 167 55 0 120-18 161-43l27 64C477-12 401 5 332 5zm128-310c-14-92-104-156-214-125-60 17-102 60-116 125h330" id="aa"/><g id="j"><use transform="matrix(0.031111111111111107,0,0,0.031111111111111107,0,0)" xlink:href="#T"/><use transform="matrix(0.031111111111111107,0,0,0.031111111111111107,18.666666666666664,0)" xlink:href="#U"/><use transform="matrix(0.031111111111111107,0,0,0.031111111111111107,37.33333333333333,0)" xlink:href="#V"/><use transform="matrix(0.031111111111111107,0,0,0.031111111111111107,55.99999999999999,0)" xlink:href="#W"/><use transform="matrix(0.031111111111111107,0,0,0.031111111111111107,74.66666666666666,0)" xlink:href="#X"/><use transform="matrix(0.031111111111111107,0,0,0.031111111111111107,93.33333333333331,0)" xlink:href="#Y"/><use transform="matrix(0.031111111111111107,0,0,0.031111111111111107,111.99999999999997,0)" xlink:href="#Z"/><use transform="matrix(0.031111111111111107,0,0,0.031111111111111107,130.66666666666663,0)" xlink:href="#aa"/></g><path fill="#303030" d="M508-496c-2 102-53 162-121 198L549 0h-90L311-274c-51 14-120 13-184 14V0H51v-690c204-40 461-26 457 194zm-76 10c5-152-160-169-305-147v305c152 3 300-12 305-158" id="ab"/><path fill="#303030" d="M330-436c-90 0-149 46-183 106V0H73v-500h74v92c42-57 105-104 197-104 116 0 182 67 182 186V0h-74v-316c-1-79-44-120-122-120" id="ac"/><path fill="#303030" d="M304 7C148 7 59-90 59-251c0-156 89-257 239-257 156 0 240 97 240 257C538-97 453 7 304 7zm1-70c105 0 162-78 162-188 0-114-57-187-169-187-103 0-163 80-163 187 0 113 61 188 170 188" id="ad"/><path fill="#303030" d="M495-660c-81-53-232-25-226 89v71h241l-10 69H269v362h259V0H67v-69h128v-362H75l10-69h110v-81c7-116 92-174 208-174 52 0 93 17 130 40" id="ae"/><g id="k"><use transform="matrix(0.031111111111111107,0,0,0.031111111111111107,0,0)" xlink:href="#ab"/><use transform="matrix(0.031111111111111107,0,0,0.031111111111111107,18.666666666666664,0)" xlink:href="#U"/><use transform="matrix(0.031111111111111107,0,0,0.031111111111111107,37.33333333333333,0)" xlink:href="#ac"/><use transform="matrix(0.031111111111111107,0,0,0.031111111111111107,55.99999999999999,0)" xlink:href="#ad"/><use transform="matrix(0.031111111111111107,0,0,0.031111111111111107,74.66666666666666,0)" xlink:href="#ae"/><use transform="matrix(0.031111111111111107,0,0,0.031111111111111107,93.33333333333331,0)" xlink:href="#ae"/></g><g id="l"><use transform="matrix(0.031111111111111107,0,0,0.031111111111111107,0,0)" xlink:href="#X"/><use transform="matrix(0.031111111111111107,0,0,0.031111111111111107,18.666666666666664,0)" xlink:href="#Y"/><use transform="matrix(0.031111111111111107,0,0,0.031111111111111107,37.33333333333333,0)" xlink:href="#Z"/><use transform="matrix(0.031111111111111107,0,0,0.031111111111111107,55.99999999999999,0)" xlink:href="#aa"/></g><path fill="#303030" d="M271-395c26-77 110-132 213-101 20 6 42 16 65 29l-40 63c-24-14-55-27-85-27-84 0-128 60-153 125v237h171V0H51v-69h146v-361H60v-70h211v105" id="af"/><path fill="#303030" d="M366-67c50 0 97-14 133-32l27 63C476-11 424 5 353 5 179 5 64-87 64-253c0-189 164-282 368-247 25 4 50 15 75 26l-25 66c-37-15-79-27-126-27-123 0-214 62-214 182 0 126 98 186 224 186" id="ag"/><g id="m"><use transform="matrix(0.031111111111111107,0,0,0.031111111111111107,0,0)" xlink:href="#T"/><use transform="matrix(0.031111111111111107,0,0,0.031111111111111107,18.666666666666664,0)" xlink:href="#U"/><use transform="matrix(0.031111111111111107,0,0,0.031111111111111107,37.33333333333333,0)" xlink:href="#af"/><use transform="matrix(0.031111111111111107,0,0,0.031111111111111107,55.99999999999999,0)" xlink:href="#ae"/><use transform="matrix(0.031111111111111107,0,0,0.031111111111111107,74.66666666666666,0)" xlink:href="#Y"/><use transform="matrix(0.031111111111111107,0,0,0.031111111111111107,93.33333333333331,0)" xlink:href="#ag"/><use transform="matrix(0.031111111111111107,0,0,0.031111111111111107,111.99999999999997,0)" xlink:href="#aa"/></g><path fill="#303030" d="M543-477c0 220-188 278-411 259V0H56v-690c56-10 117-18 180-18 175 2 307 57 307 231zm-76 10c3-167-174-186-335-163v345c167 17 333-16 335-182" id="ah"/><path fill="#303030" d="M48-69h210v-611H58v-70h274v681h220V0H48v-69" id="ai"/><path fill="#303030" d="M551 5C425 2 301 18 264-74c-35-86-18-237-22-357H48l10-69h184v-97l74-18v115h227l-10 69H316c2 88-5 212 8 283 17 94 111 81 227 83V5" id="aj"/><path fill="#303030" d="M50-69h216v-361H50v-70h290v431h210V0H50v-69zm242-555c-35 0-65-30-65-65s30-65 65-65 65 30 65 65-30 65-65 65" id="ak"/><g id="n"><use transform="matrix(0.026888888888888882,0,0,0.026888888888888882,0,0)" xlink:href="#ah"/><use transform="matrix(0.026888888888888882,0,0,0.026888888888888882,16.13333333333333,0)" xlink:href="#aa"/><use transform="matrix(0.026888888888888882,0,0,0.026888888888888882,32.26666666666666,0)" xlink:href="#af"/><use transform="matrix(0.026888888888888882,0,0,0.026888888888888882,48.39999999999999,0)" xlink:href="#ag"/><use transform="matrix(0.026888888888888882,0,0,0.026888888888888882,64.53333333333332,0)" xlink:href="#ad"/><use transform="matrix(0.026888888888888882,0,0,0.026888888888888882,80.66666666666664,0)" xlink:href="#ai"/><use transform="matrix(0.026888888888888882,0,0,0.026888888888888882,96.79999999999997,0)" xlink:href="#Y"/><use transform="matrix(0.026888888888888882,0,0,0.026888888888888882,112.93333333333331,0)" xlink:href="#aj"/><use transform="matrix(0.026888888888888882,0,0,0.026888888888888882,129.06666666666663,0)" xlink:href="#ak"/><use transform="matrix(0.026888888888888882,0,0,0.026888888888888882,145.19999999999996,0)" xlink:href="#ad"/><use transform="matrix(0.026888888888888882,0,0,0.026888888888888882,161.3333333333333,0)" xlink:href="#ac"/></g><path fill="#303030" d="M62-700h474v71H342v558h204V0H53v-71h213v-558H62v-71" id="al"/><g id="o"><use transform="matrix(0.026888888888888882,0,0,0.026888888888888882,0,0)" xlink:href="#al"/><use transform="matrix(0.026888888888888882,0,0,0.026888888888888882,16.13333333333333,0)" xlink:href="#ac"/><use transform="matrix(0.026888888888888882,0,0,0.026888888888888882,32.26666666666666,0)" xlink:href="#ae"/><use transform="matrix(0.026888888888888882,0,0,0.026888888888888882,48.39999999999999,0)" xlink:href="#ak"/><use transform="matrix(0.026888888888888882,0,0,0.026888888888888882,64.53333333333332,0)" xlink:href="#ai"/><use transform="matrix(0.026888888888888882,0,0,0.026888888888888882,80.66666666666664,0)" xlink:href="#aj"/><use transform="matrix(0.026888888888888882,0,0,0.026888888888888882,96.79999999999997,0)" xlink:href="#af"/><use transform="matrix(0.026888888888888882,0,0,0.026888888888888882,112.93333333333331,0)" xlink:href="#Y"/><use transform="matrix(0.026888888888888882,0,0,0.026888888888888882,129.06666666666663,0)" xlink:href="#aj"/><use transform="matrix(0.026888888888888882,0,0,0.026888888888888882,145.19999999999996,0)" xlink:href="#ak"/><use transform="matrix(0.026888888888888882,0,0,0.026888888888888882,161.3333333333333,0)" xlink:href="#ad"/><use transform="matrix(0.026888888888888882,0,0,0.026888888888888882,177.4666666666666,0)" xlink:href="#ac"/></g></defs></g></svg>