<svg xmlns="http://www.w3.org/2000/svg" xmlns:xlink="http://www.w3.org/1999/xlink" xmlns:lucid="lucid" width="719.47" height="1304"><g transform="translate(-351.532 -180)" lucid:page-tab-id="Zq1UPR1CHgUr"><path d="M401 1461h338v2H401zM401 1459v-218h2v218zM677 1419v-178h2v178zM677 1421h62v2h-62zM401 1161h118v2H401zM401 1159V941h2v218zM677 1039v-98h2v98zM677 1163v-82h2v82zM677 1041h62v2h-62zM677 1077h62v2h-62zM559 1161v58h-2v-58zM523 1161v58h-2v-58z" stroke="#282c33" stroke-width="2" fill="none"/><path d="M561 1161h118v2H561zM401 861h118v2H401zM401 859V641h2v218zM677 739v-98h2v98zM677 863v-82h2v82zM677 741h62v2h-62zM677 777h62v2h-62zM559 861v58h-2v-58zM523 861v58h-2v-58z" stroke="#282c33" stroke-width="2" fill="none"/><path d="M561 861h118v2H561zM401 561h118v2H401zM401 559V321h2v238zM681 459v-38h2v38zM681 563v-62h2v62zM681 461h62v2h-62zM681 497h62v2h-62zM559 561v58h-2v-58zM523 561v58h-2v-58zM561 561h118v2H561zM681 381h62v2h-62zM681 417h62v2h-62zM681 379v-58h2v58z" stroke="#282c33" stroke-width="2" fill="none"/><path d="M460 200h80v40h-80z" stroke="#cc4e00" stroke-width="4" fill-opacity="0"/><use xlink:href="#a" transform="matrix(1,0,0,1,465,205) translate(13.400000000000002 20.166)"/><path d="M560 200h80v40h-80z" stroke="#008a0e" stroke-width="4" fill-opacity="0"/><use xlink:href="#b" transform="matrix(1,0,0,1,565,205) translate(2.6000000000000014 20.166)"/><path d="M600 332.55V244" stroke="#008a0e" stroke-width="4" fill="none"/><path d="M600 356.07l-12.73-21.52h25.46z" stroke="#008a0e" stroke-width="4" fill="#fff"/><path d="M602 244.05h-4V242h4z" stroke="#008a0e" stroke-width=".05" fill="#008a0e"/><path d="M500 358v-88.55M500 357.95V360" stroke="#cc4e00" stroke-width="4" fill="none"/><path d="M500 245.93l12.73 21.52h-25.46z" stroke="#cc4e00" stroke-width="4" fill="#fff"/><path d="M371.53 400v-80H400v80z" fill="#282c33"/><use xlink:href="#c" transform="matrix(6.123233995736766e-17,-1,1,6.123233995736766e-17,376.532,395.00000000000006) translate(2.6000000000000014 14.666)"/><use xlink:href="#d" transform="matrix(6.123233995736766e-17,-1,1,6.123233995736766e-17,376.532,395.00000000000006) translate(56.599999999999994 14.666)"/><path d="M373.3 720v-80h28.47v80z" fill="#282c33"/><use xlink:href="#c" transform="matrix(6.123233995736766e-17,-1,1,6.123233995736766e-17,378.3050196249473,715) translate(2.6000000000000014 14.666)"/><use xlink:href="#e" transform="matrix(6.123233995736766e-17,-1,1,6.123233995736766e-17,378.3050196249473,715) translate(56.599999999999994 14.666)"/><path d="M375.53 1020v-80H404v80z" fill="#282c33"/><use xlink:href="#c" transform="matrix(6.123233995736766e-17,-1,1,6.123233995736766e-17,380.5319999999999,1015.0000000000002) translate(2.6000000000000014 14.666)"/><use xlink:href="#f" transform="matrix(6.123233995736766e-17,-1,1,6.123233995736766e-17,380.5319999999999,1015.0000000000002) translate(56.599999999999994 14.666)"/><path d="M375.53 1320v-80H404v80z" fill="#282c33"/><use xlink:href="#c" transform="matrix(6.123233995736766e-17,-1,1,6.123233995736766e-17,380.5319999999999,1315) translate(2.6000000000000014 14.666)"/><use xlink:href="#g" transform="matrix(6.123233995736766e-17,-1,1,6.123233995736766e-17,380.5319999999999,1315) translate(56.599999999999994 14.666)"/><path d="M783.26 760l.08 1H741v-2h42.34zm238.24 1h-24.84l.08-1-.08-1h24.84z" stroke="#282c33" stroke-width=".05" fill="#282c33"/><path d="M741.03 761H740v-2h1.03z" stroke="#282c33" stroke-width=".05" fill="#282c33"/><path d="M1036.76 760l-14.26 4.64v-9.28z" fill="#282c33"/><path d="M1040 760l-18.5 6v-12zm-16.5 3.26l10.03-3.26-10.03-3.26z" stroke="#282c33" stroke-width=".05" fill="#282c33"/><path d="M784.27 760a12.44 12.44 0 0 1 12.43-12.44h186.6A12.44 12.44 0 0 1 995.73 760a12.44 12.44 0 0 1-12.43 12.44H796.7A12.44 12.44 0 0 1 784.27 760z" stroke="#282c33" stroke-width="2" fill-opacity="0"/><use xlink:href="#h" transform="matrix(1,0,0,1,796.2666641333333,751.563999772) translate(0 13.155555911111112)"/><use xlink:href="#i" transform="matrix(1,0,0,1,796.2666641333333,751.563999772) translate(128.26667013333332 13.155555911111112)"/><path d="M806 1060l.08 1H741v-2h65.08zm215.5 1h-47.58l.08-1-.08-1h47.58z" stroke="#282c33" stroke-width=".05" fill="#282c33"/><path d="M741.03 1061H740v-2h1.03z" stroke="#282c33" stroke-width=".05" fill="#282c33"/><path d="M1036.76 1060l-14.26 4.64v-9.28z" fill="#282c33"/><path d="M1040 1060l-18.5 6v-12zm-16.5 3.26l10.03-3.26-10.03-3.26z" stroke="#282c33" stroke-width=".05" fill="#282c33"/><path d="M807 1060a12.1 12.1 0 0 1 12.1-12.1h141.8A12.1 12.1 0 0 1 973 1060a12.1 12.1 0 0 1-12.1 12.1H819.1A12.1 12.1 0 0 1 807 1060z" stroke="#282c33" stroke-width="2" fill-opacity="0"/><use xlink:href="#j" transform="matrix(1,0,0,1,819,1051.906) translate(0 12.622222222222224)"/><use xlink:href="#k" transform="matrix(1,0,0,1,819,1051.906) translate(85.20000000000002 12.622222222222224)"/><path d="M824.93 1440l.08 1h-84v-2h84zm196.57 1H955l.07-1-.08-1h66.5z" stroke="#282c33" stroke-width=".05" fill="#282c33"/><path d="M741.03 1441H740v-2h1.03z" stroke="#282c33" stroke-width=".05" fill="#282c33"/><path d="M1036.76 1440l-14.26 4.64v-9.28z" fill="#282c33"/><path d="M1040 1440l-18.5 6v-12zm-16.5 3.26l10.03-3.26-10.03-3.26z" stroke="#282c33" stroke-width=".05" fill="#282c33"/><path d="M825.93 1440a12.1 12.1 0 0 1 12.1-12.1h103.94a12.1 12.1 0 0 1 12.1 12.1 12.1 12.1 0 0 1-12.1 12.1H838.03a12.1 12.1 0 0 1-12.1-12.1z" stroke="#282c33" stroke-width="2" fill-opacity="0"/><use xlink:href="#l" transform="matrix(1,0,0,1,837.9333333333333,1431.906) translate(0 12.622222222222224)"/><use xlink:href="#m" transform="matrix(1,0,0,1,837.9333333333333,1431.906) translate(47.33333333333334 12.622222222222224)"/><path d="M1021.5 439v2h-46.52l.08-1-.08-1zm-249.92-39.95l.6.14.6.23.52.33.48.4.4.5.34.52.24.58.15.65.05 34.56.03.35.07.32.12.3.17.25.2.24.24.22.26.16.3.12.26.06h40l-.08 1.04.08.97h-40.24l-.65-.16-.57-.23-.53-.33-.48-.4-.4-.5-.34-.52-.24-.58-.14-.6-.05-.6-.04-34.4-.05-.26-.12-.3-.16-.25-.2-.24-.25-.22-.26-.16-.3-.12-.3-.07-.35-.03H741v-2h30z" stroke="#282c33" stroke-width=".05" fill="#282c33"/><path d="M741.03 401H740v-2h1.03z" stroke="#282c33" stroke-width=".05" fill="#282c33"/><path d="M1036.76 440l-14.26 4.64v-9.28z" fill="#282c33"/><path d="M1040 440l-18.5 6v-12zm-16.5 3.26l10.03-3.26-10.03-3.26zM816.52 440l.08 1.03h-40l-.27.07-.3.12-.25.16-.24.2-.2.25-.17.26-.12.28-.07.3-.03.36-.04 34.55-.14.64-.24.58-.33.53-.42.48-.48.4-.53.34-.58.24-.62.15-.6.05H741v-2h29.9l.36-.03.3-.07.3-.12.26-.16.24-.2.2-.25.17-.26.12-.28.06-.27.05-34.4.05-.58.14-.6.24-.6.33-.52.42-.48.48-.4.53-.34.58-.24.66-.16h40.24zm204.98 1h-46.52l.08-1-.08-1h46.52z" stroke="#282c33" stroke-width=".05" fill="#282c33"/><path d="M741.03 481H740v-2h1.03z" stroke="#282c33" stroke-width=".05" fill="#282c33"/><path d="M1036.76 440l-14.26 4.64v-9.28z" fill="#282c33"/><path d="M1040 440l-18.5 6v-12zm-16.5 3.26l10.03-3.26-10.03-3.26z" stroke="#282c33" stroke-width=".05" fill="#282c33"/><path d="M817.52 440a12.1 12.1 0 0 1 12.1-12.1h132.34a12.1 12.1 0 0 1 12.1 12.1 12.1 12.1 0 0 1-12.1 12.1H829.62a12.1 12.1 0 0 1-12.1-12.1z" stroke="#282c33" stroke-width="2" fill-opacity="0"/><use xlink:href="#n" transform="matrix(1,0,0,1,829.5237449487847,431.906) translate(0 12.622222222222216)"/><use xlink:href="#o" transform="matrix(1,0,0,1,829.5237449487847,431.906) translate(75.73333333333329 12.622222222222216)"/><path d="M541 981.5h-2v-14h2zm0-42.3h-2V881h2z" stroke="#282c33" stroke-width=".05" fill="#282c33"/><path d="M541 881.03h-2V880h2z" stroke="#282c33" stroke-width=".05" fill="#282c33"/><path d="M540 996.76l-4.64-14.26h9.28z" fill="#282c33"/><path d="M540 1000l-6-18.5h12zm-3.26-16.5l3.26 10.03 3.26-10.03z" stroke="#282c33" stroke-width=".05" fill="#282c33"/><path d="M468.6 953.34a13.23 13.23 0 0 1 13.23-13.23h116.34a13.23 13.23 0 0 1 13.23 13.24 13.23 13.23 0 0 1-13.23 13.24H481.83a13.23 13.23 0 0 1-13.23-13.24z" stroke="#282c33" stroke-width="2" fill-opacity="0"/><use xlink:href="#p" transform="matrix(1,0,0,1,480.6,944.1096600324358) translate(0 14.4)"/><path d="M541 1281.5h-2v-14.93h2zm0-43.24h-2V1181h2z" stroke="#282c33" stroke-width=".05" fill="#282c33"/><path d="M541 1181.03h-2V1180h2z" stroke="#282c33" stroke-width=".05" fill="#282c33"/><path d="M540 1296.76l-4.64-14.26h9.28z" fill="#282c33"/><path d="M540 1300l-6-18.5h12zm-3.26-16.5l3.26 10.03 3.26-10.03z" stroke="#282c33" stroke-width=".05" fill="#282c33"/><path d="M468.6 1252.4a13.23 13.23 0 0 1 13.23-13.22h116.34a13.23 13.23 0 0 1 13.23 13.23 13.23 13.23 0 0 1-13.23 13.24H481.83a13.23 13.23 0 0 1-13.23-13.23z" stroke="#282c33" stroke-width="2" fill-opacity="0"/><g><use xlink:href="#p" transform="matrix(1,0,0,1,480.6,1243.176347727834) translate(0 14.4)"/></g><path d="M541 681.5h-2v-14.73h2zm0-43.04h-2V581h2z" stroke="#282c33" stroke-width=".05" fill="#282c33"/><path d="M541 581.03h-2V580h2z" stroke="#282c33" stroke-width=".05" fill="#282c33"/><path d="M540 696.76l-4.64-14.26h9.28z" fill="#282c33"/><path d="M540 700l-6-18.5h12zm-3.26-16.5l3.26 10.03 3.26-10.03z" stroke="#282c33" stroke-width=".05" fill="#282c33"/><path d="M463.2 652.6a13.23 13.23 0 0 1 13.23-13.22h127.14a13.23 13.23 0 0 1 13.23 13.23 13.23 13.23 0 0 1-13.23 13.25H476.43a13.23 13.23 0 0 1-13.23-13.24z" stroke="#282c33" stroke-width="2" fill-opacity="0"/><g><use xlink:href="#q" transform="matrix(1,0,0,1,475.2,643.378111166354) translate(0 14.4)"/></g><defs><path fill="#282c33" d="M144-71h387V0H68v-700h444v71H144v227h330v71H144v260" id="r"/><path fill="#282c33" d="M333 0h-67L69-500h85l147 400 147-400h82" id="s"/><path fill="#282c33" d="M441-337c-1-137-231-107-299-55l-30-64c55-28 117-51 199-50 119 2 203 50 203 169V0h-73v-79C409-37 341 1 263 0 158-2 83-42 83-143c0-154 205-168 358-142v-52zm0 113c-94-17-273-32-279 73-4 66 40 86 106 86 80 0 147-35 173-94v-65" id="t"/><path fill="#282c33" d="M237 8c-38 0-61-6-93-13v190H71v-685h73v32c47-25 95-38 144-38 148 0 238 93 238 245C526-82 414 8 237 8zm31-446c-50 0-92 15-124 37v328c30 10 50 16 89 16 136-3 221-65 221-204 0-115-73-177-186-177" id="u"/><g id="a"><use transform="matrix(0.018,0,0,0.018,0,0)" xlink:href="#r"/><use transform="matrix(0.018,0,0,0.018,10.799999999999999,0)" xlink:href="#s"/><use transform="matrix(0.018,0,0,0.018,21.599999999999998,0)" xlink:href="#t"/><use transform="matrix(0.018,0,0,0.018,32.4,0)" xlink:href="#u"/></g><path fill="#282c33" d="M543-477c0 220-188 278-411 259V0H56v-690c56-10 117-18 180-18 175 2 307 57 307 231zm-76 10c3-167-174-186-335-163v345c167 17 333-16 335-182" id="v"/><path fill="#282c33" d="M271-395c26-77 110-132 213-101 20 6 42 16 65 29l-40 63c-24-14-55-27-85-27-84 0-128 60-153 125v237h171V0H51v-69h146v-361H60v-70h211v105" id="w"/><path fill="#282c33" d="M332 5C157 5 51-77 51-251c0-161 96-258 251-258 159 0 232 113 236 277H126c9 116 91 167 211 167 55 0 120-18 161-43l27 64C477-12 401 5 332 5zm128-310c-14-92-104-156-214-125-60 17-102 60-116 125h330" id="x"/><path fill="#282c33" d="M366-67c50 0 97-14 133-32l27 63C476-11 424 5 353 5 179 5 64-87 64-253c0-189 164-282 368-247 25 4 50 15 75 26l-25 66c-37-15-79-27-126-27-123 0-214 62-214 182 0 126 98 186 224 186" id="y"/><path fill="#282c33" d="M50-69h216v-361H50v-70h290v431h210V0H50v-69zm242-555c-35 0-65-30-65-65s30-65 65-65 65 30 65 65-30 65-65 65" id="z"/><g id="b"><use transform="matrix(0.018,0,0,0.018,0,0)" xlink:href="#v"/><use transform="matrix(0.018,0,0,0.018,10.799999999999999,0)" xlink:href="#w"/><use transform="matrix(0.018,0,0,0.018,21.599999999999998,0)" xlink:href="#x"/><use transform="matrix(0.018,0,0,0.018,32.4,0)" xlink:href="#y"/><use transform="matrix(0.018,0,0,0.018,43.199999999999996,0)" xlink:href="#z"/><use transform="matrix(0.018,0,0,0.018,53.99999999999999,0)" xlink:href="#u"/></g><path fill="#fff" d="M53-700h493v71H342V0h-76v-629H53v-71" id="A"/><path fill="#fff" d="M441-337c-1-137-231-107-299-55l-30-64c55-28 117-51 199-50 119 2 203 50 203 169V0h-73v-79C409-37 341 1 263 0 158-2 83-42 83-143c0-154 205-168 358-142v-52zm0 113c-94-17-273-32-279 73-4 66 40 86 106 86 80 0 147-35 173-94v-65" id="B"/><path fill="#fff" d="M330-436c-90 0-149 46-183 106V0H73v-500h74v92c42-57 105-104 197-104 116 0 182 67 182 186V0h-74v-316c-1-79-44-120-122-120" id="C"/><path fill="#fff" d="M130-268l288-232h113L320-329 544 0h-97L256-285 130-181V0H56v-750h74v482" id="D"/><g id="c"><use transform="matrix(0.018,0,0,0.018,0,0)" xlink:href="#A"/><use transform="matrix(0.018,0,0,0.018,10.799999999999999,0)" xlink:href="#B"/><use transform="matrix(0.018,0,0,0.018,21.599999999999998,0)" xlink:href="#C"/><use transform="matrix(0.018,0,0,0.018,32.4,0)" xlink:href="#D"/></g><path fill="#fff" d="M300 9C78 9-1-235 58-461c30-113 104-206 242-206 180 0 260 153 260 338 0 147-59 256-154 311C374 0 339 9 300 9zm82-574c-38-31-110-38-158-7-88 56-136 208-96 344 10 32 23 60 39 85zM220-89c39 30 110 36 156 4 84-58 136-206 96-341-10-31-23-59-38-83" id="E"/><use transform="matrix(0.018,0,0,0.018,0,0)" xlink:href="#E" id="d"/><path fill="#fff" d="M268-572c-62 18-135 34-197 53l-23-67 245-67h49v584h209V0H48v-69h220v-503" id="F"/><use transform="matrix(0.018,0,0,0.018,0,0)" xlink:href="#F" id="e"/><path fill="#fff" d="M300-666c127 0 217 64 217 192 0 82-66 139-117 194-66 70-156 144-226 210h364V0H62v-53c114-120 250-221 349-345 22-29 33-56 33-80 0-82-67-117-151-119-70-2-137 39-173 76l-50-39c47-63 124-106 230-106" id="G"/><use transform="matrix(0.018,0,0,0.018,0,0)" xlink:href="#G" id="f"/><path fill="#fff" d="M538-203C538-22 347 32 160-8c-38-8-72-19-102-32l24-64c46 20 129 41 198 39 101-3 183-41 183-135 0-133-159-155-295-133v-73c124 5 257-7 257-107 0-70-73-83-146-85-64-3-136 20-174 38l-23-61c117-65 418-87 418 99 0 80-49 123-112 143 85 16 150 82 150 176" id="H"/><use transform="matrix(0.018,0,0,0.018,0,0)" xlink:href="#H" id="g"/><path d="M62-700h474v71H342v558h204V0H53v-71h213v-558H62v-71" id="I"/><path d="M330-436c-90 0-149 46-183 106V0H73v-500h74v92c42-57 105-104 197-104 116 0 182 67 182 186V0h-74v-316c-1-79-44-120-122-120" id="J"/><path d="M551 5C425 2 301 18 264-74c-35-86-18-237-22-357H48l10-69h184v-97l74-18v115h227l-10 69H316c2 88-5 212 8 283 17 94 111 81 227 83V5" id="K"/><path d="M332 5C157 5 51-77 51-251c0-161 96-258 251-258 159 0 232 113 236 277H126c9 116 91 167 211 167 55 0 120-18 161-43l27 64C477-12 401 5 332 5zm128-310c-14-92-104-156-214-125-60 17-102 60-116 125h330" id="L"/><path d="M271-395c26-77 110-132 213-101 20 6 42 16 65 29l-40 63c-24-14-55-27-85-27-84 0-128 60-153 125v237h171V0H51v-69h146v-361H60v-70h211v105" id="M"/><path d="M222-435c-55 0-77 45-77 98V0H71v-500h74v63c14-39 47-71 92-71s77 33 85 77c21-41 53-78 109-78 87 0 99 78 99 173V0h-74v-336c-2-58-1-91-41-99-45 6-69 41-69 89V0h-74v-336c1-50-13-99-50-99" id="N"/><path d="M70-234c0-204 168-318 389-269v-247h74V0h-74v-40C416-13 379 6 314 6 160 6 70-85 70-234zM318-64c60 0 102-19 141-44v-323c-31-10-65-15-100-15-132 0-214 81-214 209 0 107 63 173 173 173" id="O"/><path d="M50-69h216v-361H50v-70h290v431h210V0H50v-69zm242-555c-35 0-65-30-65-65s30-65 65-65 65 30 65 65-30 65-65 65" id="P"/><path d="M441-337c-1-137-231-107-299-55l-30-64c55-28 117-51 199-50 119 2 203 50 203 169V0h-73v-79C409-37 341 1 263 0 158-2 83-42 83-143c0-154 205-168 358-142v-52zm0 113c-94-17-273-32-279 73-4 66 40 86 106 86 80 0 147-35 173-94v-65" id="Q"/><g id="h"><use transform="matrix(0.01644444488888889,0,0,0.01644444488888889,0,0)" xlink:href="#I"/><use transform="matrix(0.01644444488888889,0,0,0.01644444488888889,9.866666933333333,0)" xlink:href="#J"/><use transform="matrix(0.01644444488888889,0,0,0.01644444488888889,19.733333866666666,0)" xlink:href="#K"/><use transform="matrix(0.01644444488888889,0,0,0.01644444488888889,29.600000799999997,0)" xlink:href="#L"/><use transform="matrix(0.01644444488888889,0,0,0.01644444488888889,39.46666773333333,0)" xlink:href="#M"/><use transform="matrix(0.01644444488888889,0,0,0.01644444488888889,49.333334666666666,0)" xlink:href="#N"/><use transform="matrix(0.01644444488888889,0,0,0.01644444488888889,59.2000016,0)" xlink:href="#L"/><use transform="matrix(0.01644444488888889,0,0,0.01644444488888889,69.06666853333333,0)" xlink:href="#O"/><use transform="matrix(0.01644444488888889,0,0,0.01644444488888889,78.93333546666666,0)" xlink:href="#P"/><use transform="matrix(0.01644444488888889,0,0,0.01644444488888889,88.8000024,0)" xlink:href="#Q"/><use transform="matrix(0.01644444488888889,0,0,0.01644444488888889,98.66666933333333,0)" xlink:href="#K"/><use transform="matrix(0.01644444488888889,0,0,0.01644444488888889,108.53333626666667,0)" xlink:href="#L"/></g><path d="M508-496c-2 102-53 162-121 198L549 0h-90L311-274c-51 14-120 13-184 14V0H51v-690c204-40 461-26 457 194zm-76 10c5-152-160-169-305-147v305c152 3 300-12 305-158" id="R"/><path d="M283-69c72 0 129-29 162-70v-361h76V0h-76v-79C417-36 357 2 285 1 144 0 75-76 76-223v-277h73v281c0 96 43 150 134 150" id="S"/><path d="M304 7C148 7 59-90 59-251c0-156 89-257 239-257 156 0 240 97 240 257C538-97 453 7 304 7zm1-70c105 0 162-78 162-188 0-114-57-187-169-187-103 0-163 80-163 187 0 113 61 188 170 188" id="T"/><path d="M495-660c-81-53-232-25-226 89v71h241l-10 69H269v362h259V0H67v-69h128v-362H75l10-69h110v-81c7-116 92-174 208-174 52 0 93 17 130 40" id="U"/><g id="i"><use transform="matrix(0.01644444488888889,0,0,0.01644444488888889,0,0)" xlink:href="#R"/><use transform="matrix(0.01644444488888889,0,0,0.01644444488888889,9.866666933333333,0)" xlink:href="#S"/><use transform="matrix(0.01644444488888889,0,0,0.01644444488888889,19.733333866666666,0)" xlink:href="#J"/><use transform="matrix(0.01644444488888889,0,0,0.01644444488888889,29.600000799999997,0)" xlink:href="#T"/><use transform="matrix(0.01644444488888889,0,0,0.01644444488888889,39.46666773333333,0)" xlink:href="#U"/><use transform="matrix(0.01644444488888889,0,0,0.01644444488888889,49.333334666666666,0)" xlink:href="#U"/></g><path fill="#303030" d="M77-530c-3-198 283-211 436-143l-29 68c-91-39-330-66-330 68 0 57 57 79 102 102 88 45 201 76 260 149 19 23 29 50 29 83C545 32 227 36 54-44l30-74c110 51 384 84 384-82 0-57-56-77-102-100-89-44-202-73-260-146-19-23-29-51-29-84" id="V"/><path fill="#303030" d="M283-69c72 0 129-29 162-70v-361h76V0h-76v-79C417-36 357 2 285 1 144 0 75-76 76-223v-277h73v281c0 96 43 150 134 150" id="W"/><path fill="#303030" d="M241 6C177 6 119 0 70-26v-724h73v271c37-17 85-30 137-30 157 0 256 89 256 248C536-88 412 6 241 6zm36-447c-52 0-101 12-134 34v333c160 44 323-25 320-187-2-115-75-180-186-180" id="X"/><path fill="#303030" d="M68-245v-74h463v74H68" id="Y"/><path fill="#303030" d="M379-390c90 17 161 77 161 171C540 2 281 24 59-6v-684c179-32 439-28 439 156 0 85-51 127-119 144zM135-70c151 13 330 3 330-147 0-135-189-138-330-125v272zm287-454c0-122-169-121-287-106v217c104 7 213-3 265-56 15-15 22-33 22-55" id="Z"/><path fill="#303030" d="M441-337c-1-137-231-107-299-55l-30-64c55-28 117-51 199-50 119 2 203 50 203 169V0h-73v-79C409-37 341 1 263 0 158-2 83-42 83-143c0-154 205-168 358-142v-52zm0 113c-94-17-273-32-279 73-4 66 40 86 106 86 80 0 147-35 173-94v-65" id="aa"/><path fill="#303030" d="M118-359c0-167 249-158 378-112l-27 67c-35-19-89-26-144-26-59 0-120 6-126 60 5 35 47 45 81 58 73 28 161 49 206 104 15 18 23 40 23 66 2 184-291 164-407 98l28-66c50 18 112 40 176 40 59 0 123-17 124-71-14-64-98-71-156-95-66-26-156-42-156-123" id="ab"/><path fill="#303030" d="M332 5C157 5 51-77 51-251c0-161 96-258 251-258 159 0 232 113 236 277H126c9 116 91 167 211 167 55 0 120-18 161-43l27 64C477-12 401 5 332 5zm128-310c-14-92-104-156-214-125-60 17-102 60-116 125h330" id="ac"/><g id="j"><use transform="matrix(0.01577777777777778,0,0,0.01577777777777778,0,0)" xlink:href="#V"/><use transform="matrix(0.01577777777777778,0,0,0.01577777777777778,9.466666666666669,0)" xlink:href="#W"/><use transform="matrix(0.01577777777777778,0,0,0.01577777777777778,18.933333333333337,0)" xlink:href="#X"/><use transform="matrix(0.01577777777777778,0,0,0.01577777777777778,28.400000000000006,0)" xlink:href="#Y"/><use transform="matrix(0.01577777777777778,0,0,0.01577777777777778,37.866666666666674,0)" xlink:href="#Z"/><use transform="matrix(0.01577777777777778,0,0,0.01577777777777778,47.33333333333334,0)" xlink:href="#aa"/><use transform="matrix(0.01577777777777778,0,0,0.01577777777777778,56.80000000000001,0)" xlink:href="#ab"/><use transform="matrix(0.01577777777777778,0,0,0.01577777777777778,66.26666666666668,0)" xlink:href="#ac"/></g><path fill="#303030" d="M508-496c-2 102-53 162-121 198L549 0h-90L311-274c-51 14-120 13-184 14V0H51v-690c204-40 461-26 457 194zm-76 10c5-152-160-169-305-147v305c152 3 300-12 305-158" id="ad"/><path fill="#303030" d="M330-436c-90 0-149 46-183 106V0H73v-500h74v92c42-57 105-104 197-104 116 0 182 67 182 186V0h-74v-316c-1-79-44-120-122-120" id="ae"/><path fill="#303030" d="M304 7C148 7 59-90 59-251c0-156 89-257 239-257 156 0 240 97 240 257C538-97 453 7 304 7zm1-70c105 0 162-78 162-188 0-114-57-187-169-187-103 0-163 80-163 187 0 113 61 188 170 188" id="af"/><path fill="#303030" d="M495-660c-81-53-232-25-226 89v71h241l-10 69H269v362h259V0H67v-69h128v-362H75l10-69h110v-81c7-116 92-174 208-174 52 0 93 17 130 40" id="ag"/><g id="k"><use transform="matrix(0.01577777777777778,0,0,0.01577777777777778,0,0)" xlink:href="#ad"/><use transform="matrix(0.01577777777777778,0,0,0.01577777777777778,9.466666666666669,0)" xlink:href="#W"/><use transform="matrix(0.01577777777777778,0,0,0.01577777777777778,18.933333333333337,0)" xlink:href="#ae"/><use transform="matrix(0.01577777777777778,0,0,0.01577777777777778,28.400000000000006,0)" xlink:href="#af"/><use transform="matrix(0.01577777777777778,0,0,0.01577777777777778,37.866666666666674,0)" xlink:href="#ag"/><use transform="matrix(0.01577777777777778,0,0,0.01577777777777778,47.33333333333334,0)" xlink:href="#ag"/></g><g id="l"><use transform="matrix(0.01577777777777778,0,0,0.01577777777777778,0,0)" xlink:href="#Z"/><use transform="matrix(0.01577777777777778,0,0,0.01577777777777778,9.466666666666669,0)" xlink:href="#aa"/><use transform="matrix(0.01577777777777778,0,0,0.01577777777777778,18.933333333333337,0)" xlink:href="#ab"/><use transform="matrix(0.01577777777777778,0,0,0.01577777777777778,28.400000000000006,0)" xlink:href="#ac"/></g><g id="m"><use transform="matrix(0.01577777777777778,0,0,0.01577777777777778,0,0)" xlink:href="#ad"/><use transform="matrix(0.01577777777777778,0,0,0.01577777777777778,9.466666666666669,0)" xlink:href="#W"/><use transform="matrix(0.01577777777777778,0,0,0.01577777777777778,18.933333333333337,0)" xlink:href="#ae"/><use transform="matrix(0.01577777777777778,0,0,0.01577777777777778,28.400000000000006,0)" xlink:href="#af"/><use transform="matrix(0.01577777777777778,0,0,0.01577777777777778,37.866666666666674,0)" xlink:href="#ag"/><use transform="matrix(0.01577777777777778,0,0,0.01577777777777778,47.33333333333334,0)" xlink:href="#ag"/></g><path fill="#303030" d="M271-395c26-77 110-132 213-101 20 6 42 16 65 29l-40 63c-24-14-55-27-85-27-84 0-128 60-153 125v237h171V0H51v-69h146v-361H60v-70h211v105" id="ah"/><path fill="#303030" d="M366-67c50 0 97-14 133-32l27 63C476-11 424 5 353 5 179 5 64-87 64-253c0-189 164-282 368-247 25 4 50 15 75 26l-25 66c-37-15-79-27-126-27-123 0-214 62-214 182 0 126 98 186 224 186" id="ai"/><g id="n"><use transform="matrix(0.01577777777777777,0,0,0.01577777777777777,0,0)" xlink:href="#V"/><use transform="matrix(0.01577777777777777,0,0,0.01577777777777777,9.466666666666661,0)" xlink:href="#W"/><use transform="matrix(0.01577777777777777,0,0,0.01577777777777777,18.933333333333323,0)" xlink:href="#ah"/><use transform="matrix(0.01577777777777777,0,0,0.01577777777777777,28.399999999999984,0)" xlink:href="#ag"/><use transform="matrix(0.01577777777777777,0,0,0.01577777777777777,37.866666666666646,0)" xlink:href="#aa"/><use transform="matrix(0.01577777777777777,0,0,0.01577777777777777,47.33333333333331,0)" xlink:href="#ai"/><use transform="matrix(0.01577777777777777,0,0,0.01577777777777777,56.79999999999997,0)" xlink:href="#ac"/></g><g id="o"><use transform="matrix(0.01577777777777777,0,0,0.01577777777777777,0,0)" xlink:href="#ad"/><use transform="matrix(0.01577777777777777,0,0,0.01577777777777777,9.466666666666661,0)" xlink:href="#W"/><use transform="matrix(0.01577777777777777,0,0,0.01577777777777777,18.933333333333323,0)" xlink:href="#ae"/><use transform="matrix(0.01577777777777777,0,0,0.01577777777777777,28.399999999999984,0)" xlink:href="#af"/><use transform="matrix(0.01577777777777777,0,0,0.01577777777777777,37.866666666666646,0)" xlink:href="#ag"/><use transform="matrix(0.01577777777777777,0,0,0.01577777777777777,47.33333333333331,0)" xlink:href="#ag"/></g><path fill="#303030" d="M543-477c0 220-188 278-411 259V0H56v-690c56-10 117-18 180-18 175 2 307 57 307 231zm-76 10c3-167-174-186-335-163v345c167 17 333-16 335-182" id="aj"/><path fill="#303030" d="M48-69h210v-611H58v-70h274v681h220V0H48v-69" id="ak"/><path fill="#303030" d="M551 5C425 2 301 18 264-74c-35-86-18-237-22-357H48l10-69h184v-97l74-18v115h227l-10 69H316c2 88-5 212 8 283 17 94 111 81 227 83V5" id="al"/><path fill="#303030" d="M50-69h216v-361H50v-70h290v431h210V0H50v-69zm242-555c-35 0-65-30-65-65s30-65 65-65 65 30 65 65-30 65-65 65" id="am"/><g id="p"><use transform="matrix(0.018,0,0,0.018,0,0)" xlink:href="#aj"/><use transform="matrix(0.018,0,0,0.018,10.799999999999999,0)" xlink:href="#ac"/><use transform="matrix(0.018,0,0,0.018,21.599999999999998,0)" xlink:href="#ah"/><use transform="matrix(0.018,0,0,0.018,32.4,0)" xlink:href="#ai"/><use transform="matrix(0.018,0,0,0.018,43.199999999999996,0)" xlink:href="#af"/><use transform="matrix(0.018,0,0,0.018,53.99999999999999,0)" xlink:href="#ak"/><use transform="matrix(0.018,0,0,0.018,64.8,0)" xlink:href="#aa"/><use transform="matrix(0.018,0,0,0.018,75.6,0)" xlink:href="#al"/><use transform="matrix(0.018,0,0,0.018,86.39999999999999,0)" xlink:href="#am"/><use transform="matrix(0.018,0,0,0.018,97.19999999999999,0)" xlink:href="#af"/><use transform="matrix(0.018,0,0,0.018,107.99999999999999,0)" xlink:href="#ae"/></g><path fill="#303030" d="M62-700h474v71H342v558h204V0H53v-71h213v-558H62v-71" id="an"/><g id="q"><use transform="matrix(0.018,0,0,0.018,0,0)" xlink:href="#an"/><use transform="matrix(0.018,0,0,0.018,10.799999999999999,0)" xlink:href="#ae"/><use transform="matrix(0.018,0,0,0.018,21.599999999999998,0)" xlink:href="#ag"/><use transform="matrix(0.018,0,0,0.018,32.4,0)" xlink:href="#am"/><use transform="matrix(0.018,0,0,0.018,43.199999999999996,0)" xlink:href="#ak"/><use transform="matrix(0.018,0,0,0.018,53.99999999999999,0)" xlink:href="#al"/><use transform="matrix(0.018,0,0,0.018,64.8,0)" xlink:href="#ah"/><use transform="matrix(0.018,0,0,0.018,75.6,0)" xlink:href="#aa"/><use transform="matrix(0.018,0,0,0.018,86.39999999999999,0)" xlink:href="#al"/><use transform="matrix(0.018,0,0,0.018,97.19999999999999,0)" xlink:href="#am"/><use transform="matrix(0.018,0,0,0.018,107.99999999999999,0)" xlink:href="#af"/><use transform="matrix(0.018,0,0,0.018,118.8,0)" xlink:href="#ae"/></g></defs></g></svg>